<svg xmlns="http://www.w3.org/2000/svg" width="509" height="510" style="shape-rendering:geometricPrecision;text-rendering:geometricPrecision;image-rendering:optimizeQuality;fill-rule:evenodd;clip-rule:evenodd"><path fill="#f9faf9" d="M174.5 4.5q2 1 0 0M221.5 4.5q2 1 0 0M185.5 6.5q.595-1.538 2-.5a2.43 2.43 0 0 1-2 .5M216.5 5.5q2 1 0 0M177.5 6.5q2 1 0 0M182.5 6.5q2 1 0 0M211.5 6.5q2 1 0 0" style="opacity:1"/><path fill="#f9f9f9" d="M245.5 17.5a159 159 0 0 1 36 23q18.981 17.235 29 38 3.774-1.245 7-3a206 206 0 0 1 23-3.5q6.284-1.218 12 .5-.814.09-1 1 5.412 5.383 11 0 6.505.126 12 3a51 51 0 0 0-4 2.5q2.595 2.779 3.5-.5.582 1.392 2 2l2-2a129 129 0 0 1 2 3 4.93 4.93 0 0 0 .5-3 16 16 0 0 1 5 2 3.65 3.65 0 0 0 1.5-1q10.65 7.695 21.5 15 1.5 2.5 4 4a160 160 0 0 1 18 23q1.009 5.079 4 7a3.65 3.65 0 0 1-1 1.5 188 188 0 0 1 8 22q-1.437 1.72 1 3a7.9 7.9 0 0 0-1 3.5q.876 11.84 2 23.5-2.159 1.486-3 4a71 71 0 0 0 9 1.5q23.217 7.605 38 27 30.845 57.013-20.5 98-2.623-1.198-4 2l-1-1q-9.61 5.175-20.5 6.5a9817 9817 0 0 1-170 1q-2.342.477-3.5 2.5l-1-1q-3.493 2.92-8 7a48.3 48.3 0 0 0-4.5 10.5q-.198 22.442.5 45.5a10.5 10.5 0 0 0 2.5-3q4.637-5.819 12-7 12.37 2.164 7.5 14a162 162 0 0 0-10.5 11q-6.99 6.95-14 14a41.2 41.2 0 0 1-10 3 86904 86904 0 0 0-27-26q-6.98-9.37 3-15.5 4.701-1.185 9 1l8.5 8.5q.092-24.28 1-49a43 43 0 0 1 2-9 47.4 47.4 0 0 0 4.5-8q6.005-7.809 13.5-12a57.3 57.3 0 0 1 13-6 7507 7507 0 0 0 161.5 1q12.139-.196 23-5.5l-1.5-.5q-46.712.426-93.5 0 .25-68.502-.5-137-2.308-1.569-.5-4-3.201-11.856-9-19a6.55 6.55 0 0 0-3-3 25.9 25.9 0 0 0-9-8q-2.521-2.262-6-3-2.145-1.556-5-2-7.1-2.32-15-2-69.262.061-138.5 0-33.64 5.887-40.5 40a4.93 4.93 0 0 0-.5-3 28 28 0 0 1-1.5 5 6358 6358 0 0 1 1 159q-25.743 1.743-52 .5-46.6-7.215-67.5-52.5-10.43-33.662 2-65a133 133 0 0 0 7.5-12q11.202-15.705 28-25 2.312 5.98 5.5 0l1 1a29.5 29.5 0 0 1 2.5-4.5q-.342-.598-1-.5 4.56-2.769 10-4 3.122 4.227 8 2-1.497-3.792-2.5 0a19.6 19.6 0 0 1-3.5-2 14.34 14.34 0 0 0 6-3 23.8 23.8 0 0 1-1-9q-.337-11.239 1-23 .092-3.331-2-1 1.735-22.415 10-41a137.7 137.7 0 0 1 19-29q6.5-7.5 14-14a68.5 68.5 0 0 0 9-7 11362 11362 0 0 0 18-11q2.855-.444 5-2 1.875-.116 2.5-2 8.75-.575 17-5l1 1a44.6 44.6 0 0 1 12.5-2q.895.958 2.5 1 2.549.17 3.5-2a62.8 62.8 0 0 0 15.5-1q21.338 2.89 42.5 10" style="opacity:1"/><path fill="#f9faf9" d="M211.5 7.5q-1 1 0 0M164.5 8.5q2 1 0 0M170.5 8.5q2 1 0 0M172.5 8.5q2 1 0 0" style="opacity:1"/><path fill="#eeeeeb" d="M187.5 8.5q-.951 2.17-3.5 2-1.605-.042-2.5-1 2.647-1.442 6-1" style="opacity:1"/><path fill="#f9faf9" d="M245.5 12.5q2 1 0 0M138.5 13.5q2 1 0 0M143.5 14.5q2 1 0 0M249.5 15.5q1.538.595.5 2a2.43 2.43 0 0 1-.5-2M143.5 16.5q2 1 0 0M148.5 17.5q-1-2 0 0M245.5 16.5q2 1 0 0M143.5 19.5q-1-2 0 0M122.5 20.5q2 1 0 0M256.5 20.5q2 1 0 0M264.5 25.5q2 1 0 0M270.5 28.5q1.538.595.5 2a2.43 2.43 0 0 1-.5-2M272.5 28.5q2 1 0 0M275.5 28.5q2 1 0 0M125.5 30.5q-1-2 0 0M279.5 34.5q2 1 0 0M116.5 37.5q-1-2 0 0M279.5 36.5q2 1 0 0M106.5 38.5q2 1 0 0M281.5 39.5q2 1 0 0M289.5 42.5q2 1 0 0M289.5 43.5q-1 1 0 0M291.5 44.5q2 1 0 0M289.5 45.5q2 1 0 0M102.5 46.5q2 1 0 0M294.5 46.5q2 1 0 0M98.5 47.5q2 1 0 0M102.5 51.5q-1-2 0 0M297.5 54.5q-1-2 0 0M93.5 54.5q2 1 0 0M297.5 54.5q2 1 0 0M302.5 60.5q2 1 0 0M316.5 68.5q2 1 0 0M321.5 68.5q2 1 0 0M350.5 68.5q2 1 0 0M363.5 68.5q2 1 0 0M329.5 70.5q-1-2 0 0M333.5 69.5q2 1 0 0M358.5 69.5q2 1 0 0M366.5 69.5q2 1 0 0M307.5 70.5q2 1 0 0M312.5 70.5q2 1 0 0M325.5 70.5q2 1 0 0M329.5 70.5q2 1 0 0M353.5 70.5q2 1 0 0M361.5 70.5q2 1 0 0M364.5 70.5q2 1 0 0M318.5 71.5q2 1 0 0M375.5 71.5q2 1 0 0M308.5 72.5q2 1 0 0" style="opacity:1"/><path fill="#f6f6f3" d="M352.5 72.5q5.158-.37 10 1-5.588 5.383-11 0 .186-.91 1-1" style="opacity:1"/><path fill="#f9faf9" d="M317.5 75.5q-1.538-.595-.5-2 .696.891.5 2" style="opacity:1"/><path fill="#f8f9f3" d="M374.5 76.5q3.429.143 6 2a4.93 4.93 0 0 1-.5 3 129 129 0 0 0-2-3l-2 2q-1.418-.608-2-2-.905 3.279-3.5.5a51 51 0 0 1 4-2.5" style="opacity:1"/><path fill="#f9faf9" d="M391.5 78.5q2 1 0 0M83.5 80.5q-1-2 0 0M401.5 85.5q2 1 0 0M77.5 86.5q2 1 0 0M78.5 88.5q2 1 0 0M408.5 93.5q2 1 0 0M416.5 95.5q2 1 0 0M412.5 97.5q2 1 0 0M420.5 101.5q2 1 0 0M69.5 117.5q2 1 0 0M71.5 119.5q2 1 0 0M166.5 120.5q2 1 0 0M173.5 120.5q2 1 0 0M326.5 120.5q-1 1 0 0M430.5 120.5q2 1 0 0M211.5 121.5q2 1 0 0M320.5 121.5q2 1 0 0M172.5 122.5q2 1 0 0M317.5 122.5q2 1 0 0M331.5 122.5q-1 1 0 0" style="opacity:1"/><path fill="#f9f9f9" d="M353.5 156.5v140q-4.341-.687-7.5 2l-1.5-1.5a41 41 0 0 0-9-.5v-91q1.742-21.741.5-44-.574-.834-1.5-1-4.083-16.323-21-18.5-68.06-.733-135.5-.5-5.106 1.435-9.5 4-5.099 2.832-9 7.5l1 1q-2.906 3.706-3.5 8.5.138 95.041-.5 190.5l.5 107.5q1.547 11.974 12.5 19 1.119 1.553 4.5 3 72.002.512 140.5-1 .867-2.915 3-1 14.878-4.63 17.5-20l1-134a9.8 9.8 0 0 1 4-1q6.412.036 13 1a9362 9362 0 0 0 1.5 136.5 87 87 0 0 1-6 15.5q-10.002 17.274-30 20.5-73.5 1-147 0a110 110 0 0 0-8-2.5 79 79 0 0 1-10-5.5q-8.363-8.242-13-17.5a51.7 51.7 0 0 1-2-14 11104 11104 0 0 0 0-298q2.182-18.659 17-30 8.548-5.937 19-7.5 70.5-1 141 0 29.673 4.915 38 32.5" style="opacity:1"/><path fill="#f9faf9" d="M433.5 123.5q2 1 0 0M337.5 125.5q-1 1 0 0M153.5 126.5q2 1 0 0M157.5 127.5q2 1 0 0M149.5 130.5q2 1 0 0M155.5 131.5q-1-2 0 0M70.5 133.5q2 1 0 0M346.5 133.5q-1 1 0 0" style="opacity:1"/><path fill="#f2f2f2" d="M74.5 145.5a151 151 0 0 1-1-24q2.092-2.331 2 1-1.337 11.761-1 23" style="opacity:1"/><path fill="#f9faf9" d="M342.5 134.5q2 1 0 0M349.5 136.5q-1 1 0 0M66.5 138.5q2 1 0 0M141.5 139.5q2 1 0 0M69.5 140.5q1.538.595.5 2a2.43 2.43 0 0 1-.5-2M440.5 141.5q2 1 0 0M306.5 143.5q1.126-1.61 3-.5a4.93 4.93 0 0 1-3 .5M176.5 144.5q2 1 0 0M168.5 145.5q2 1 0 0M311.5 146.5q2 1 0 0M440.5 146.5q1.538.595.5 2a2.43 2.43 0 0 1-.5-2M139.5 147.5q2 1 0 0M180.5 147.5q2 1 0 0M318.5 147.5q2 1 0 0M353.5 147.5q2 1 0 0M166.5 148.5q2 1 0 0M326.5 151.5q-1-2 0 0M326.5 151.5q2 1 0 0M162.5 152.5q2 1 0 0M328.5 152.5q2 1 0 0M354.5 152.5q2 1 0 0M326.5 153.5q2 1 0 0M161.5 155.5q.595-1.538 2-.5a2.43 2.43 0 0 1-2 .5M353.5 155.5q2 1 0 0M55.5 156.5q2 1 0 0M61.5 156.5q2 1 0 0" style="opacity:1"/><path fill="#f9f9f9" d="M271.5 168.5q-4.294 6.777-12.5 7a577 577 0 0 0-33.5-1.5q-6.983-4.345-4.5-12.5.565-2.163 2.5-3 .814.09 1 1-3.534 1.73-.5 4 4.6-2.874 1.5-6 20.24-1.741 41-.5 6.608 3.867 5 11.5" style="opacity:1"/><path fill="#f9faf9" d="M51.5 157.5q2 1 0 0" style="opacity:1"/><path fill="#f9faf2" d="M67.5 157.5h2a19.6 19.6 0 0 0 3.5 2q1.003-3.792 2.5 0-4.878 2.227-8-2" style="opacity:1"/><path fill="#f2f2f2" d="M132.5 158.5a6482 6482 0 0 1-1 161 6358 6358 0 0 0-1-159 28 28 0 0 0 1.5-5q.724 1.422.5 3" style="opacity:1"/><path fill="#f8f9f1" d="M223.5 158.5q.513-1.257 2-1 3.1 3.126-1.5 6-3.034-2.27.5-4-.186-.91-1-1" style="opacity:1"/><path fill="#f9faf9" d="M354.5 158.5q2 1 0 0M219.5 159.5q2 1 0 0M219.5 160.5q-1 1 0 0" style="opacity:1"/><path fill="#f3f3f3" d="M138.5 161.5a11104 11104 0 0 1 0 298 23681 23681 0 0 1 0-298" style="opacity:1"/><path fill="#f2f2f2" d="M334.5 160.5q.926.166 1.5 1 1.242 22.259-.5 44a546 546 0 0 0-1-45" style="opacity:1"/><path fill="#f8f8f3" d="M57.5 161.5q.658-.098 1 .5a29.5 29.5 0 0 0-2.5 4.5l-1-1q-3.188 5.98-5.5 0 3.523-2.761 8-4" style="opacity:1"/><path fill="#f9faf9" d="M159.5 163.5q2 1 0 0M218.5 163.5q2 1 0 0M354.5 163.5q1.538.595.5 2a2.43 2.43 0 0 1-.5-2M36.5 164.5q2 1 0 0M34.5 165.5q2 1 0 0M271.5 168.5q2 1 0 0M34.5 169.5q2 1 0 0M271.5 172.5q2 1 0 0M271.5 173.5q-1 1 0 0M218.5 174.5q1.538.595.5 2a2.43 2.43 0 0 1-.5-2M29.5 175.5q2 1 0 0M226.5 175.5q2 1 0 0M271.5 175.5q2 1 0 0M267.5 176.5q2 1 0 0M267.5 177.5q-1 1 0 0M269.5 177.5q2 1 0 0M158.5 178.5q2 1 0 0M449.5 181.5q2 1 0 0M20.5 183.5q2 1 0 0M449.5 186.5q2 1 0 0M21.5 190.5q-1-2 0 0M470.5 191.5q2 1 0 0M355.5 196.5q2 1 0 0M476.5 199.5q.595-1.538 2-.5a2.43 2.43 0 0 1-2 .5M483.5 205.5q2 1 0 0" style="opacity:1"/><path fill="#faf9f3" d="M476.5 206.5h3a4.93 4.93 0 0 0 .5 3q2.5-1.26.5 1.5l3 3q-6.705-.46-7-7.5" style="opacity:1"/><path fill="#f9faf9" d="M487.5 213.5q2 1 0 0M161.5 217.5q2 1 0 0M4.5 233.5q2 1 0 0M501.5 244.5q2 1 0 0M3.5 249.5q2 1 0 0M500.5 250.5q2 1 0 0M7.5 256.5q2 1 0 0M161.5 259.5q2 1 0 0M11.5 279.5q2 1 0 0M16.5 280.5q2 1 0 0M11.5 281.5q2 1 0 0M16.5 283.5q-1-2 0 0M494.5 282.5q2 1 0 0M16.5 283.5q2 1 0 0M494.5 284.5q2 1 0 0M496.5 288.5q2 1 0 0M18.5 289.5q2 1 0 0M494.5 290.5q2 1 0 0M26.5 295.5q2 1 0 0M353.5 296.5q2 1 0 0M360.5 298.5q2 1 0 0M29.5 299.5q2 1 0 0M434.5 299.5q2 1 0 0M252.5 301.5q2 1 0 0M260.5 301.5q2 1 0 0M481.5 302.5q2 1 0 0M35.5 304.5q2 1 0 0M250.5 304.5q2 1 0 0M476.5 305.5q2 1 0 0M43.5 308.5q2 1 0 0M472.5 308.5q2 1 0 0M242.5 310.5q2 1 0 0M48.5 312.5q-1-2 0 0M48.5 312.5q1 0 1 1zM246.5 312.5q2 1 0 0M46.5 313.5q2 1 0 0M49.5 313.5q2 1 0 0M468.5 313.5q2 1 0 0M471.5 313.5q2 1 0 0M52.5 314.5q2 1 0 0M54.5 314.5q2 1 0 0M235.5 318.5q2 1 0 0M243.5 319.5q-1-2 0 0M454.5 318.5q2 1 0 0M136.5 319.5q2 1 0 0M68.5 321.5q.595-1.538 2-.5a2.43 2.43 0 0 1-2 .5M61.5 321.5q2 1 0 0M83.5 321.5q2 1 0 0M443.5 321.5q2 1 0 0M453.5 321.5q1.538.595.5 2a2.43 2.43 0 0 1-.5-2M135.5 322.5q2 1 0 0M281.5 322.5q2 1 0 0M290.5 322.5q2 1 0 0M305.5 322.5q2 1 0 0M68.5 323.5q2 1 0 0M84.5 323.5q2 1 0 0M106.5 323.5q2 1 0 0M125.5 323.5q2 1 0 0M131.5 323.5q2 1 0 0M277.5 323.5q2 1 0 0M346.5 323.5q2 1 0 0M370.5 323.5q2 1 0 0M375.5 323.5q2 1 0 0M393.5 323.5q2 1 0 0M457.5 323.5q2 1 0 0M331.5 330.5q2 1 0 0M333.5 330.5q2 1 0 0M264.5 331.5q2 1 0 0M159.5 332.5q2 1 0 0M234.5 335.5q2 1 0 0M234.5 346.5q2 1 0 0M78.5 364.5q1.65-1.647 4-.5a8.4 8.4 0 0 1-4 .5" style="opacity:1"/><path fill="#f9f9f9" d="M73.5 381.5q-3.34-6.23-1-13 11.584-7.684 18 4.5-2.168 17.083-17 8.5" style="opacity:1"/><path fill="#f9faf9" d="M234.5 365.5q2 1 0 0" style="opacity:1"/><path fill="#f9f9f8" d="M407.5 365.5a32.5 32.5 0 0 1 8 .5q3.25 1.25 4.5 4.5 1.077-1.426 2.5-.5a50.2 50.2 0 0 0-3.5 10.5q-8.54 8.243-16-1-2.536-8.834 4.5-14" style="opacity:1"/><path fill="#f9faf9" d="M421.5 365.5q2 1 0 0M89.5 366.5q2 1 0 0M419.5 366.5q2 1 0 0M424.5 366.5q2 1 0 0M72.5 368.5q-1-2 0 0M234.5 367.5q2 1 0 0M422.5 367.5q2 1 0 0M71.5 368.5q-1 1 0 0M67.5 369.5q2 1 0 0M257.5 372.5q1.538.595.5 2a2.43 2.43 0 0 1-.5-2M226.5 373.5q2 1 0 0M263.5 373.5q2 1 0 0M265.5 373.5q2 1 0 0M215.5 374.5q2 1 0 0M230.5 375.5q-1-2 0 0M67.5 375.5q2 1 0 0M230.5 375.5a2.43 2.43 0 0 1 2 .5q-1.405 1.038-2-.5M256.5 377.5q2 1 0 0M424.5 377.5q2 1 0 0M67.5 379.5q2 1 0 0M67.5 380.5q-1 1 0 0M73.5 381.5q-1 1 0 0M257.5 382.5q-1-2 0 0M87.5 383.5q2 1 0 0M69.5 384.5q2 1 0 0M78.5 385.5q2 1 0 0M89.5 385.5q2 1 0 0M75.5 386.5q2 1 0 0M73.5 387.5q2 1 0 0M280.5 387.5q2 1 0 0M212.5 390.5q2 1 0 0M210.5 391.5q2 1 0 0M215.5 391.5q-1 1 0 0M68.5 396.5q2 1 0 0M409.5 396.5q2 1 0 0" style="opacity:1"/><path fill="#f9f9f9" d="M76.5 398.5q13.588-2.156 14 11.5-3.868 9.47-14 7-9.93-9.247 0-18.5" style="opacity:1"/><path fill="#f9faf9" d="M269.5 398.5q2 1 0 0" style="opacity:1"/><path fill="#f9f9f9" d="M407.5 398.5q16.813-1.168 12 14a3.65 3.65 0 0 0 1 1.5 23.2 23.2 0 0 1-9.5 3.5q-4.22.138-7-3-4.263-9.61 3.5-16" style="opacity:1"/><path fill="#f9faf9" d="M221.5 399.5q2 1 0 0M266.5 400.5q2 1 0 0M422.5 400.5q2 1 0 0M424.5 400.5q2 1 0 0M160.5 403.5q2 1 0 0M263.5 404.5q2 1 0 0M425.5 404.5q2 1 0 0M68.5 406.5q-1-2 0 0M226.5 405.5q2 1 0 0M68.5 406.5q1.538.595.5 2a2.43 2.43 0 0 1-.5-2M424.5 409.5q2 1 0 0M261.5 410.5q2 1 0 0M424.5 410.5q-1 1 0 0M252.5 416.5q2 1 0 0M425.5 416.5q2 1 0 0M73.5 417.5q2 1 0 0M71.5 418.5q2 1 0 0M76.5 419.5q.595-1.538 2-.5a2.43 2.43 0 0 1-2 .5M249.5 418.5q2 1 0 0M413.5 418.5q2 1 0 0M422.5 418.5q2 1 0 0M89.5 419.5q2 1 0 0M235.5 419.5q2 1 0 0M404.5 419.5q2 1 0 0M410.5 419.5q2 1 0 0M84.5 428.5q2 1 0 0M70.5 429.5q1.538.595.5 2a2.43 2.43 0 0 1-.5-2M79.5 429.5q2 1 0 0M413.5 429.5q2 1 0 0M68.5 430.5q2 1 0 0M423.5 430.5q2 1 0 0" style="opacity:1"/><path fill="#f9f9f9" d="M88.5 447.5q-6.372 4.673-14 2-4.19-5.481-3-12 5.377-8.889 15-4.5 4.766 6.62 2 14.5M418.5 448.5q-18.987 7.02-15-13 9.514-8.78 16.5 2 .471 5.047.5 9.5-1.374.417-2 1.5" style="opacity:1"/><path fill="#f9faf9" d="M66.5 432.5q2 1 0 0M422.5 433.5q2 1 0 0M67.5 435.5q2 1 0 0M71.5 437.5q-1-2 0 0M425.5 437.5q2 1 0 0M422.5 440.5q2 1 0 0M424.5 443.5q-1-2 0 0M425.5 442.5q2 1 0 0M67.5 444.5q.595-1.538 2-.5a2.43 2.43 0 0 1-2 .5M424.5 443.5h1q-.278 1.005-1 0M160.5 444.5q2 1 0 0M423.5 446.5q2 1 0 0M88.5 447.5q2 1 0 0M423.5 447.5q-1 1 0 0M402.5 448.5q2 1 0 0M418.5 448.5q1 0 1 1zM74.5 449.5q-1 1 0 0M419.5 449.5q2 1 0 0M331.5 454.5q2 1 0 0M158.5 456.5q2 1 0 0M160.5 456.5q2 1 0 0M333.5 456.5q2 1 0 0M332.5 460.5q2 1 0 0M160.5 461.5q2 1 0 0M326.5 468.5q2 1 0 0M168.5 472.5q2 1 0 0M323.5 472.5q2 1 0 0M140.5 473.5q-1 1 0 0M138.5 475.5q2 1 0 0M352.5 475.5q2 1 0 0M172.5 476.5q2 1 0 0M177.5 476.5q2 1 0 0M308.5 478.5q.595-1.538 2-.5a2.43 2.43 0 0 1-2 .5M348.5 478.5q2 1 0 0M352.5 480.5q2 1 0 0" style="opacity:1"/><path fill="#f2f2f2" d="M169.5 479.5a52.6 52.6 0 0 1 7 1.5q68.999.75 138 .5-68.498 1.512-140.5 1-3.381-1.447-4.5-3" style="opacity:1"/><path fill="#f9faf9" d="M142.5 483.5q2 1 0 0M348.5 483.5q2 1 0 0M149.5 490.5q2 1 0 0M334.5 495.5q2 1 0 0M163.5 496.5q-1 1 0 0M333.5 497.5q-1-2 0 0M333.5 497.5q2 1 0 0" style="opacity:1"/></svg>