<?xml version="1.0" encoding="UTF-8"?>
<svg version="1.1" xmlns="http://www.w3.org/2000/svg" width="671" height="618">
<path d="M0 0 C2.94551751 0.33749387 2.94551751 0.33749387 6.03857422 0.19140625 C9.04441184 0.27917538 10.34524551 0.83233587 12.91479492 2.27539062 C14.43500315 2.71509249 15.96954868 3.10709986 17.51245117 3.45898438 C18.3918335 3.66313965 19.27121582 3.86729492 20.17724609 4.07763672 C21.10126221 4.28727051 22.02527832 4.4969043 22.97729492 4.71289062 C29.72564056 6.27104523 36.41985992 7.88298608 43.05151367 9.89257812 C44.99628496 10.49217264 44.99628496 10.49217264 46.91479492 9.27539062 C46.91479492 10.26539062 46.91479492 11.25539063 46.91479492 12.27539062 C47.98238037 12.45545654 47.98238037 12.45545654 49.0715332 12.63916016 C52.03751671 13.30285181 54.60844698 14.27362436 57.40698242 15.45507812 C58.44209961 15.88949219 59.4772168 16.32390625 60.54370117 16.77148438 C61.61491211 17.22652344 62.68612305 17.6815625 63.78979492 18.15039062 C65.38500977 18.82134766 65.38500977 18.82134766 67.01245117 19.50585938 C69.07087042 20.3726968 71.12789721 21.24285006 73.18334961 22.11669922 C74.81626854 22.80939079 76.45156544 23.49657668 78.09155273 24.17236328 C81.27250502 25.49139816 84.11025827 26.90215826 86.91479492 28.90039062 C90.22750511 31.18733776 93.60179608 33.28248633 97.08544922 35.29980469 C111.4538723 43.65867051 132.25437109 55.95454296 139.91479492 71.27539062 C140.15115856 77.65720881 140.15115856 77.65720881 139.10229492 80.40039062 C139.04041992 81.01914063 138.97854492 81.63789063 138.91479492 82.27539062 C141.31064778 84.92126296 141.31064778 84.92126296 143.91479492 87.27539062 C143.91479492 87.93539062 143.91479492 88.59539062 143.91479492 89.27539062 C144.57479492 89.27539062 145.23479492 89.27539062 145.91479492 89.27539062 C147.66887628 91.27918496 149.30032213 93.28777092 150.91479492 95.40039062 C151.40463867 96.03565674 151.89448242 96.67092285 152.39916992 97.32543945 C153.91397303 99.30166213 155.41595493 101.28704222 156.91479492 103.27539062 C157.34920898 103.84660645 157.78362305 104.41782227 158.23120117 105.00634766 C184.05906188 139.16349103 198.8945669 180.78251534 202.91479492 223.27539062 C203.0256543 224.33371094 203.13651367 225.39203125 203.25073242 226.48242188 C203.76518874 232.23181887 203.92787633 237.83446383 203.79760742 243.60351562 C203.77746582 244.73088135 203.75732422 245.85824707 203.73657227 247.01977539 C203.68921069 249.2916814 203.61968722 251.56324757 203.52661133 253.83374023 C203.49446533 255.40393921 203.49446533 255.40393921 203.46166992 257.00585938 C203.42912109 257.94840576 203.39657227 258.89095215 203.36303711 259.86206055 C203.68722416 262.50227165 203.68722416 262.50227165 206.25219727 263.96142578 C207.57018311 264.61183838 207.57018311 264.61183838 208.91479492 265.27539062 C220.77601445 274.17888917 225.19765592 288.24317176 227.22290039 302.43432617 C229.22380896 318.84997983 227.69288674 335.04613706 224.91479492 351.27539062 C224.75720703 352.21092773 224.59961914 353.14646484 224.43725586 354.11035156 C224.19023926 355.47208496 224.19023926 355.47208496 223.93823242 356.86132812 C223.79047363 357.6842334 223.64271484 358.50713867 223.49047852 359.35498047 C223.30050293 359.98871582 223.11052734 360.62245117 222.91479492 361.27539062 C221.92479492 361.77039063 221.92479492 361.77039063 220.91479492 362.27539062 C220.58029208 363.94182296 220.2472524 365.60854903 219.91479492 367.27539062 C213.40915364 382.49197531 204.61066484 394.35863886 189.13354492 401.46289062 C181.09744361 404.40568829 172.35145686 406.75765758 163.91479492 404.27539062 C161.15773745 402.863102 160.02071047 401.70529318 157.91479492 399.27539062 C156.77872614 394.75694727 156.97590603 390.79912327 157.47216797 386.19238281 C157.54369331 385.50711895 157.61521866 384.82185509 157.68891144 384.11582565 C157.92721277 381.85043004 158.17685643 379.58643551 158.42651367 377.32226562 C158.59736891 375.71854438 158.76746354 374.11474195 158.93684387 372.51086426 C159.29722229 369.11080612 159.66229491 365.71129827 160.03100586 362.31213379 C160.6055019 357.0102762 161.16590716 351.70699054 161.72338867 346.40332031 C163.03321404 333.95568947 164.35004897 321.50880842 165.69067383 309.06445312 C168.12933864 286.36901801 169.52833881 264.11338187 168.91479492 241.27539062 C169.24479492 241.27539062 169.57479492 241.27539062 169.91479492 241.27539062 C168.45735941 208.55847619 161.33981194 176.58412851 144.88891602 147.99609375 C143.52586437 145.58837746 142.29711847 143.11460068 141.03979492 140.65039062 C135.23792672 130.11752245 123.7253005 110.36456771 111.91479492 106.27539062 C110.05854492 106.36820313 110.05854492 106.36820313 108.16479492 106.46289062 C103.24047863 106.6202466 99.56771762 104.4814132 95.91479492 101.27539062 C95.91479492 100.61539063 95.91479492 99.95539063 95.91479492 99.27539062 C95.32311523 99.00726563 94.73143555 98.73914063 94.12182617 98.46289062 C91.89564737 97.26508823 90.42243017 96.01602571 88.60229492 94.27539062 C81.01019668 87.50025286 63.28143963 72.27539062 52.91479492 72.27539062 C52.91479492 71.61539063 52.91479492 70.95539063 52.91479492 70.27539062 C51.73916992 69.90414062 50.56354492 69.53289062 49.35229492 69.15039062 C44.23911525 67.46222972 39.27888574 65.43917876 34.32080078 63.34521484 C30.52812324 61.78102858 26.98485687 60.78805588 22.91479492 60.27539062 C22.91479492 59.61539063 22.91479492 58.95539063 22.91479492 58.27539062 C22.30458496 58.15421875 21.694375 58.03304687 21.06567383 57.90820312 C16.74851223 57.04824372 12.43398715 56.17899461 8.12573242 55.27539062 C-36.72695832 45.92457367 -82.09212773 49.17338047 -124.08520508 68.27539062 C-124.80240723 68.60152344 -125.51960937 68.92765625 -126.25854492 69.26367188 C-143.89082068 77.41976718 -160.98273517 88.42299791 -175.02270508 101.90039062 C-178.95481578 105.51672953 -182.7174542 107.12846314 -188.08520508 107.27539062 C-188.92438477 107.05882812 -189.76356445 106.84226562 -190.62817383 106.61914062 C-193.08027804 106.01373365 -193.08027804 106.01373365 -194.90161133 107.36523438 C-219.3201151 133.20405381 -235.21177907 166.54383272 -242.89770508 201.02539062 C-243.09275635 201.89856934 -243.28780762 202.77174805 -243.48876953 203.67138672 C-246.46353963 217.91931512 -247.46674842 232.13228282 -247.39770508 246.65039062 C-247.3962146 247.44052551 -247.39472412 248.2306604 -247.39318848 249.04473877 C-247.33727492 265.80670478 -246.03972114 282.36078151 -244.31628418 299.02325439 C-244.00324552 302.0741824 -243.70307577 305.12632976 -243.40240479 308.17849731 C-241.94260968 322.9681211 -240.37563866 337.7449451 -238.71801758 352.51367188 C-238.48599052 354.59528581 -238.25405655 356.67691012 -238.0222168 358.75854492 C-237.5764895 362.75971472 -237.12108934 366.75961819 -236.65991211 370.7590332 C-234.04715042 393.78837615 -234.04715042 393.78837615 -235.08520508 399.27539062 C-238.50999487 403.43483281 -242.102053 404.61433993 -247.08520508 406.27539062 C-264.18820832 404.54124581 -278.40309442 396.90877352 -289.33520508 383.52539062 C-305.88972729 359.86271198 -308.64914731 323.29686344 -303.83911133 295.41210938 C-300.72890046 282.47169836 -295.07124721 271.14598797 -284.08520508 263.27539062 C-283.09520508 262.94539063 -282.10520508 262.61539062 -281.08520508 262.27539062 C-281.09567871 261.71480957 -281.10615234 261.15422852 -281.11694336 260.57666016 C-281.32292901 247.66214182 -280.92928557 234.928416 -279.79663086 222.05908203 C-279.30338152 216.43463282 -278.97648791 210.92188833 -279.08520508 205.27539062 C-278.42520508 205.27539062 -277.76520508 205.27539062 -277.08520508 205.27539062 C-277.06393555 204.41494141 -277.06393555 204.41494141 -277.04223633 203.53710938 C-276.61904945 195.99980789 -274.85669122 189.05754919 -272.81298828 181.8269043 C-272.4817395 180.64318237 -272.4817395 180.64318237 -272.14379883 179.43554688 C-271.94069092 178.73051025 -271.73758301 178.02547363 -271.52832031 177.29907227 C-270.94260694 174.96942435 -270.94260694 174.96942435 -271.08520508 171.27539062 C-270.42520508 171.27539062 -269.76520508 171.27539062 -269.08520508 171.27539062 C-268.87895508 170.07914063 -268.67270508 168.88289062 -268.46020508 167.65039062 C-266.97947878 160.84558226 -263.94198293 154.59084605 -261.08520508 148.27539062 C-261.74520508 147.94539062 -262.40520508 147.61539063 -263.08520508 147.27539062 C-262.42520508 146.61539063 -261.76520508 145.95539063 -261.08520508 145.27539062 C-258.79613018 142.46085526 -257.27319927 139.6946352 -255.77270508 136.40039062 C-249.03702085 122.67580095 -240.28209917 107.73319098 -230.08520508 96.27539062 C-229.42520508 96.27539062 -228.76520508 96.27539062 -228.08520508 96.27539062 C-227.79645508 95.67726563 -227.50770508 95.07914062 -227.21020508 94.46289062 C-226.08520508 92.27539062 -226.08520508 92.27539062 -224.08520508 89.27539062 C-223.42520508 89.27539062 -222.76520508 89.27539062 -222.08520508 89.27539062 C-221.81708008 88.69789063 -221.54895508 88.12039062 -221.27270508 87.52539062 C-220.08520508 85.27539062 -220.08520508 85.27539062 -218.39770508 83.27539062 C-216.86210195 81.36813613 -216.86210195 81.36813613 -217.21020508 79.08789062 C-217.49895508 78.48976563 -217.78770508 77.89164062 -218.08520508 77.27539062 C-219.57020508 76.78039062 -219.57020508 76.78039062 -221.08520508 76.27539062 C-220.42520508 75.94539063 -219.76520508 75.61539063 -219.08520508 75.27539062 C-218.85833008 74.42976563 -218.63145508 73.58414063 -218.39770508 72.71289062 C-209.01956854 48.15110446 -167.74509717 29.7695908 -145.64379883 19.68554688 C-127.47473684 11.66683499 -108.79317523 6.32835141 -89.48583984 1.88867188 C-87.09348214 1.36782578 -87.09348214 1.36782578 -85.08520508 0.27539062 C-83.70783406 0.0685156 -82.32319831 -0.09135021 -80.93676758 -0.22460938 C-80.09500977 -0.30710937 -79.25325195 -0.38960938 -78.38598633 -0.47460938 C-77.50297852 -0.55710937 -76.6199707 -0.63960938 -75.71020508 -0.72460938 C-74.44370117 -0.84835938 -74.44370117 -0.84835938 -73.15161133 -0.97460938 C-70.46361203 -1.23408442 -67.77462372 -1.48030971 -65.08520508 -1.72460938 C-64.12702881 -1.81581055 -63.16885254 -1.90701172 -62.18164062 -2.00097656 C-41.29576915 -3.89487505 -20.7589467 -2.57895651 0 0 Z M169.91479492 256.27539062 C170.91479492 259.27539062 170.91479492 259.27539062 170.91479492 259.27539062 Z " fill="#F9F9F9" transform="translate(373.085205078125,72.724609375)"/>
<path d="M0 0 C11.78138535 7.8542569 15.7182488 20.9033818 19 34 C19.2165625 34.84304687 19.433125 35.68609375 19.65625 36.5546875 C26.0015481 64.26871009 20.38221836 95.07045761 5.5078125 119.13671875 C3.12328841 122.84491927 0.60066836 126.4409632 -2 130 C-2.69996094 130.96679688 -3.39992188 131.93359375 -4.12109375 132.9296875 C-7.4580266 137.38355629 -7.4580266 137.38355629 -9 139 C-9.66 139 -10.32 139 -11 139 C-11 139.66 -11 140.32 -11 141 C-11.66 141 -12.32 141 -13 141 C-13.25918213 141.61359375 -13.51836426 142.2271875 -13.78540039 142.859375 C-15.13351227 145.23530363 -16.09382403 145.92025413 -18.43359375 147.25 C-22.89953282 150.19161669 -26.77954367 153.00006399 -29 158 C-29.47397214 166.44391677 -26.94179762 174.75095221 -24.77685547 182.84179688 C-23.77781321 186.90327098 -23.32620303 190.83532568 -23 195 C-22.34 195 -21.68 195 -21 195 C-21.33 193.68 -21.66 192.36 -22 191 C-21.34 191.33 -20.68 191.66 -20 192 C-20 192.66 -20 193.32 -20 194 C-18.94683594 193.96519531 -17.89367187 193.93039062 -16.80859375 193.89453125 C5.79844895 193.37455607 23.76712684 199.43701636 40.640625 214.65625 C50.89144399 224.83918277 57.61453069 239.42941754 58.06152344 254.00634766 C58.00302575 271.76875145 51.84910977 288.19618923 39.12890625 300.86328125 C29.37460181 309.7147728 14.84645569 321 1 321 C1.14622803 321.75095947 1.29245605 322.50191895 1.44311523 323.27563477 C2.10969412 326.70424578 2.77361956 330.13336551 3.4375 333.5625 C3.66759766 334.74392578 3.89769531 335.92535156 4.13476562 337.14257812 C7.62425053 355.19686958 9.63484798 372.93680763 -0.234375 389.44140625 C-7.88540637 400.52863092 -19.77251806 407.65078006 -32.88549805 410.61352539 C-50.40536762 413.81569067 -66.73903642 411.58063502 -81.8125 401.71484375 C-86.25975654 398.22851228 -91.43769521 394.12460958 -94 389 C-94.99 388.34 -95.98 387.68 -97 387 C-98.61181795 385.38818205 -98.58683702 383.39211181 -99 381.1875 C-99.68444313 377.54527878 -99.68444313 377.54527878 -100.5546875 373.9453125 C-101.89277065 368.10000191 -100.99371834 361.83809523 -100 356 C-99.34 356 -98.68 356 -98 356 C-97.773125 355.13375 -97.54625 354.2675 -97.3125 353.375 C-94.21890502 345.42004147 -88.43177464 341.68158682 -81 338 C-71.65647679 334.24111135 -61.15901203 335.25239719 -52 339 C-46.20656089 342.11954414 -41.86352163 346.62791323 -38.6875 352.375 C-36.40588108 361.08663587 -36.78142234 368.13456572 -41.1875 376.1640625 C-45.79787084 382.94864231 -52.66256403 387.51725389 -60 391 C-49.60158695 395.58753517 -38.52712724 394.85674414 -28 391 C-19.6407905 386.66167608 -13.9542086 380.65372763 -10.8671875 371.72265625 C-9.94044925 367.74436096 -9.61766043 364.00041175 -9.625 359.9375 C-9.62371094 359.17816162 -9.62242187 358.41882324 -9.62109375 357.63647461 C-9.78674676 348.28555063 -11.70129167 339.19625575 -13.6328125 330.07446289 C-14 328 -14 328 -14 325 C-14.68626465 325.06582275 -15.3725293 325.13164551 -16.07958984 325.19946289 C-19.17752121 325.49319151 -22.27621223 325.77795491 -25.375 326.0625 C-26.45523438 326.16626953 -27.53546875 326.27003906 -28.6484375 326.37695312 C-29.6796875 326.47041016 -30.7109375 326.56386719 -31.7734375 326.66015625 C-32.72653809 326.74918213 -33.67963867 326.83820801 -34.66162109 326.92993164 C-37 327 -37 327 -39 326 C-40.39201442 325.78311186 -41.79075307 325.60840914 -43.19140625 325.45703125 C-59.59770026 323.51904841 -73.4536643 319.1926221 -88.046875 311.515625 C-90.88154553 309.9730652 -90.88154553 309.9730652 -93.578125 309.109375 C-96.77692337 307.64411897 -98.5857565 305.5493827 -101 303 C-102.00768348 302.08090773 -103.02505318 301.17234712 -104.05078125 300.2734375 C-111.04880251 294.08111998 -116.88397556 287.89161472 -122 280 C-122.52980469 279.24847656 -123.05960938 278.49695313 -123.60546875 277.72265625 C-134.91807676 260.71012235 -136.93433654 239.25552545 -134.57421875 219.421875 C-133.90894994 216.49958991 -133.05219794 213.80710052 -132 211 C-131.76361816 210.35369629 -131.52723633 209.70739258 -131.28369141 209.04150391 C-126.21553054 195.36151415 -119.33064876 184.23206248 -110 173 C-109.23429687 172.03126953 -109.23429687 172.03126953 -108.453125 171.04296875 C-107.34914392 169.65649839 -106.18176561 168.32079686 -105 167 C-104.34 167 -103.68 167 -103 167 C-102.77957031 166.44570313 -102.55914062 165.89140625 -102.33203125 165.3203125 C-94.43636063 151.56656367 -74.74852211 140.96386398 -62 132 C-60.97519531 131.27941406 -59.95039063 130.55882812 -58.89453125 129.81640625 C-56.59891842 128.20721079 -54.30115086 126.60126166 -52 125 C-52.20496094 123.70449219 -52.40992188 122.40898437 -52.62109375 121.07421875 C-58.02626342 85.91227296 -57.32266643 50.29043081 -35.38671875 20.3828125 C-27.01104856 9.27333528 -15.70100494 -5.23366831 0 0 Z M-8 34 C-4 35 -4 35 -4 35 Z M-14 36.8125 C-32.1256455 54.45735915 -36.81223411 81.30842144 -37.97558594 105.36865234 C-38.00649518 108.70005072 -37.63734511 111.7347609 -37 115 C-18.72757666 101.50437769 -0.99883061 82.33771311 3 59 C3.2027353 56.30439531 3.17346079 53.71380405 3.125 51 C3.11597656 50.32066406 3.10695313 49.64132813 3.09765625 48.94140625 C3.07445493 47.29411259 3.03860167 45.64700474 3 44 C2.01 44 1.02 44 0 44 C0.66 43.67 1.32 43.34 2 43 C1.64950425 39.75791433 1.43778819 38.38472296 -1.0625 36.1875 C-1.701875 35.795625 -2.34125 35.40375 -3 35 C-3.33 35.33 -3.66 35.66 -4 36 C-5.051875 35.7525 -6.10375 35.505 -7.1875 35.25 C-11.03788685 34.6324863 -11.03788685 34.6324863 -14 36.8125 Z M-50.75 172.3125 C-51.61238281 172.98865356 -51.61238281 172.98865356 -52.4921875 173.6784668 C-53.71278112 174.63568828 -54.93215031 175.5944728 -56.15039062 176.5546875 C-57.92492187 177.94133283 -59.71619387 179.30214281 -61.515625 180.65625 C-67.8342805 185.4487371 -73.7467378 190.46762843 -79.375 196.0625 C-79.94089844 196.62300049 -80.50679688 197.18350098 -81.08984375 197.76098633 C-84.04995335 200.3970001 -84.04995335 200.3970001 -85 204 C-85.66 204 -86.32 204 -87 204 C-88.53743337 205.92707758 -89.93536358 207.83726757 -91.3125 209.875 C-91.71549316 210.46635742 -92.11848633 211.05771484 -92.53369141 211.66699219 C-102.53251938 226.59073624 -107.22690847 242.21823745 -104.50390625 260.29296875 C-100.90038725 276.03037095 -91.34411017 289.59204488 -77.9375 298.5625 C-59.90136384 309.51213246 -37.92328758 314.60247763 -17 310 C-19.57591574 294.95071336 -22.27266422 279.92744514 -25.09204102 264.921875 C-25.70011757 261.68278909 -26.30424028 258.4429802 -26.90820312 255.203125 C-27.29664113 253.1301645 -27.68530397 251.05724611 -28.07421875 248.984375 C-28.25337326 248.0220697 -28.43252777 247.0597644 -28.61711121 246.06829834 C-28.78431168 245.18176575 -28.95151215 244.29523315 -29.1237793 243.38183594 C-29.2693779 242.60515564 -29.4149765 241.82847534 -29.56498718 241.02825928 C-30.00119558 238.81266199 -30.00119558 238.81266199 -31 236 C-31.99 236 -32.98 236 -34 236 C-34 234.35 -34 232.7 -34 231 C-37.87791279 231.56181775 -40.40915326 232.65374504 -43.625 234.875 C-44.38039063 235.38804687 -45.13578125 235.90109375 -45.9140625 236.4296875 C-47.80459856 237.85290004 -49.45978348 239.20471578 -51 241 C-51 241.66 -51 242.32 -51 243 C-51.66 243 -52.32 243 -53 243 C-53.82011312 244.55851755 -54.63076213 246.12201716 -55.4375 247.6875 C-55.88996094 248.55761719 -56.34242188 249.42773438 -56.80859375 250.32421875 C-59.76628183 256.96689525 -59.81559402 263.35384401 -57.25 270.125 C-54.09493324 277.36631641 -50.01587902 281.43131695 -43 285 C-42.34 285 -41.68 285 -41 285 C-41.33 286.98 -41.66 288.96 -42 291 C-47.67180761 292.59974061 -51.81510016 291.43892074 -57 289 C-61.51752317 286.14766615 -65.23317204 282.76682796 -69 279 C-69.66 279 -70.32 279 -71 279 C-71.27714844 278.2884375 -71.55429687 277.576875 -71.83984375 276.84375 C-73.38014276 273.06820226 -75.13477149 269.40368753 -76.87890625 265.71875 C-81.22672356 255.17491429 -79.64406081 243.60098205 -75.5625 233.26953125 C-73.2372177 228.40387804 -70.34753256 224.21038105 -67 220 C-66.2575 219.01 -65.515 218.02 -64.75 217 C-63 215 -63 215 -60 213 C-60 212.34 -60 211.68 -60 211 C-59.17435547 210.61134766 -59.17435547 210.61134766 -58.33203125 210.21484375 C-55.66127593 208.82354575 -53.2033641 207.21720553 -50.6875 205.5625 C-46.54933943 202.89987658 -42.59658532 200.73648779 -38 199 C-38.5818324 191.85288346 -39.66534594 184.90520275 -41.0625 177.875 C-41.24876953 176.91851562 -41.43503906 175.96203125 -41.62695312 174.9765625 C-42.08059056 172.65021669 -42.53832038 170.32476064 -43 168 C-46.23727508 168 -48.30293981 170.37560304 -50.75 172.3125 Z M-17 227 C-16.67 229.31 -16.34 231.62 -16 234 C-15.01 234 -14.02 234 -13 234 C-13.99 234.495 -13.99 234.495 -15 235 C-14.42297231 243.34452512 -13.13138739 251.44474963 -11.56640625 259.65625 C-11.32840805 260.92094116 -11.09040985 262.18563232 -10.84519958 263.48864746 C-10.34519349 266.1415438 -9.84131418 268.79366726 -9.3347168 271.4453125 C-8.6864324 274.84091217 -8.04930083 278.23849939 -7.41511631 281.6367569 C-6.80533737 284.89448643 -6.18535154 288.15024952 -5.56640625 291.40625 C-5.3392543 292.62493774 -5.11210236 293.84362549 -4.87806702 295.09924316 C-4.6612175 296.22471558 -4.44436798 297.35018799 -4.22094727 298.50976562 C-4.03299088 299.50028931 -3.84503448 300.49081299 -3.65138245 301.51135254 C-3.08566482 304.2246025 -3.08566482 304.2246025 -1 307 C12.24379727 300.97407224 19.84540821 294.42046085 26.8125 281.6875 C31.12255294 268.30365139 28.06386033 257.17400966 22 245 C21.34 245 20.68 245 20 245 C19.7525 244.4225 19.505 243.845 19.25 243.25 C17.81700012 240.67060021 16.21575324 238.93878408 14 237 C13.34 237 12.68 237 12 237 C12 236.34 12 235.68 12 235 C2.12477211 230.21292306 -5.91785316 226.60420904 -17 227 Z M-34 230 C-33.01 231.485 -33.01 231.485 -32 233 C-32 232.01 -32 231.02 -32 230 C-32.66 230 -33.32 230 -34 230 Z " fill="#F6F6F6" transform="translate(370,141)"/>
<path d="M0 0 C7.36707671 7.04676903 8.42768713 16.10978042 9.2109375 25.84277344 C9.30409241 26.88990509 9.39724731 27.93703674 9.4932251 29.01589966 C9.79738575 32.46291713 10.08615838 35.91104303 10.375 39.359375 C10.58670665 41.78819551 10.79945319 44.21692558 11.01318359 46.64556885 C11.57387362 53.04510339 12.12186325 59.44566037 12.66674805 65.84655762 C13.53359375 76.00008332 14.42108809 86.15183997 15.30514526 96.30387878 C15.62295134 99.96080157 15.93865038 103.61790204 16.25415039 107.27502441 C17.42344228 120.77464812 18.64346605 134.26341314 20.18798828 147.72601318 C22.3098576 166.71072802 22.3098576 166.71072802 17 174 C10.16102259 181.65398508 1.15022713 184.19755226 -8.59375 186.2890625 C-9.3878125 186.52367187 -10.181875 186.75828125 -11 187 C-11.33 187.66 -11.66 188.32 -12 189 C-12.66 189 -13.32 189 -14 189 C-14.33 188.34 -14.66 187.68 -15 187 C-15.33 187.66 -15.66 188.32 -16 189 C-16.56750977 188.85143555 -17.13501953 188.70287109 -17.71972656 188.54980469 C-19.9678175 188.00775963 -22.20506045 187.59148108 -24.484375 187.203125 C-25.76441406 186.97109375 -25.76441406 186.97109375 -27.0703125 186.734375 C-28.83894866 186.41467983 -30.60982703 186.10712073 -32.3828125 185.8125 C-39.93137537 184.40706187 -46.67466352 181.60768055 -51.375 175.25 C-51.83648437 174.65703125 -52.29796875 174.0640625 -52.7734375 173.453125 C-55.94159267 167.11681465 -56.40533183 159.57852801 -57.09741211 152.61352539 C-57.19042099 151.72072876 -57.28342987 150.82793213 -57.3792572 149.90808105 C-57.68378752 146.97177949 -57.98070027 144.03476423 -58.27734375 141.09765625 C-58.49110738 139.01716636 -58.70527234 136.93671767 -58.91981506 134.85630798 C-59.36933545 130.48648323 -59.81531895 126.11631721 -60.25854492 121.74584961 C-60.81584087 116.25143048 -61.37974807 110.75771746 -61.94600487 105.26421547 C-63.91208458 86.18152619 -65.86899781 67.09597731 -67.62091255 47.99221611 C-67.80667555 45.97667258 -67.99873748 43.96171251 -68.19114685 41.9467926 C-70.6403122 14.48437451 -70.6403122 14.48437451 -64.0625 3.875 C-50.15760911 -11.40785305 -16.06484506 -11.45216677 0 0 Z " fill="#FAFBFB" transform="translate(204,307)"/>
<path d="M0 0 C4.96143197 4.50019332 7.70989853 10.12131624 8.37385559 16.70977783 C8.37895346 18.07904349 8.36350011 19.44848636 8.33129883 20.81738281 C8.31661796 21.97149092 8.31661796 21.97149092 8.30164051 23.14891434 C8.05130559 34.44423187 6.81466885 45.68695951 5.69921875 56.921875 C5.45915337 59.3992921 5.2197303 61.87677152 4.98091125 64.35430908 C4.48097357 69.52189914 3.97531332 74.68888451 3.46508789 79.85546875 C2.81754829 86.41429379 2.18131439 92.97415156 1.54905987 99.53446579 C1.05577216 104.64493747 0.55792753 109.75495719 0.0586338 114.86484528 C-0.17715544 117.28038963 -0.41195212 119.69603112 -0.64565468 122.11177826 C-1.78273987 133.82974984 -2.9836095 145.53773572 -4.48120117 157.21582031 C-4.58871106 158.10487438 -4.69622095 158.99392845 -4.80698872 159.90992355 C-5.90480464 168.09110803 -8.0252186 174.07671559 -14.56640625 179.4296875 C-21.24246096 183.73751092 -29.28774896 185.2786398 -37.0390625 186.5078125 C-39.21895519 186.87649393 -39.21895519 186.87649393 -41 189 C-43.625 188.625 -43.625 188.625 -46 188 C-46 187.34 -46 186.68 -46 186 C-47.19882812 185.87044922 -47.19882812 185.87044922 -48.421875 185.73828125 C-59.84803958 184.2764832 -69.29253604 181.56863914 -77.4765625 173.16015625 C-81.29262574 167.74917426 -81.21305642 162.53384572 -80.80078125 156.22265625 C-80.72420036 154.87277367 -80.72420036 154.87277367 -80.64607239 153.49562073 C-79.82133985 139.89552291 -78.57377464 126.32102707 -77.38877869 112.74852753 C-76.77116235 105.65722347 -76.16496629 98.56492899 -75.55859375 91.47265625 C-75.49135227 90.68754669 -75.42411079 89.90243713 -75.3548317 89.09353638 C-74.44715189 78.48131649 -73.58481977 67.86703067 -72.78515625 57.24609375 C-72.69481613 56.04732101 -72.60447601 54.84854828 -72.51139832 53.6134491 C-72.09709591 48.08589805 -71.69091349 42.55785671 -71.29370117 37.02905273 C-69.10844649 7.10844649 -69.10844649 7.10844649 -61.375 -0.625 C-46.03667178 -12.66267531 -15.27034979 -11.27705748 0 0 Z " fill="#FAFAFA" transform="translate(525,308)"/>
<path d="M0 0 C3.01174508 12.06139825 5.49641097 23.89966235 5.5625 36.375 C5.57667969 37.2935376 5.59085937 38.2120752 5.60546875 39.15844727 C5.4654165 48.75815377 2.31182333 56.4028096 -4.2578125 63.3671875 C-6.35908379 65.33654041 -8.34440816 66.86188921 -11 68 C-11.66 67.67 -12.32 67.34 -13 67 C-12.40832031 66.5875 -11.81664062 66.175 -11.20703125 65.75 C-3.29840049 59.97011977 0.71556058 54.586665 3 45 C3.23917328 42.26063166 3.37994265 39.67356608 3.375 36.9375 C3.37628906 36.17816162 3.37757813 35.41882324 3.37890625 34.63647461 C3.21325324 25.28555063 1.29870833 16.19625575 -0.6328125 7.07446289 C-1 5 -1 5 -1 2 C-1.64960693 2.07105957 -2.29921387 2.14211914 -2.96850586 2.21533203 C-5.95678644 2.533579 -8.94689701 2.82940654 -11.9375 3.125 C-12.95908203 3.23714844 -13.98066406 3.34929687 -15.03320312 3.46484375 C-21.53721098 4.08823108 -26.70289887 3.77290647 -33 2 C-33 1.67 -33 1.34 -33 1 C-28.78249212 0.85694335 -24.56496269 0.71454463 -20.34741211 0.57275391 C-18.9128357 0.52443202 -17.47826532 0.47593077 -16.04370117 0.42724609 C-13.98097266 0.35727469 -11.91822328 0.28794962 -9.85546875 0.21875 C-7.99378052 0.1559082 -7.99378052 0.1559082 -6.09448242 0.09179688 C-4.06365121 0.03155289 -2.03172457 0 0 0 Z " fill="#B7B8B9" transform="translate(357,464)"/>
<path d="M0 0 C1.36886951 1.29682374 2.7169291 2.61823134 4 4 C3.67 4.66 3.34 5.32 3 6 C2.52691406 5.52949219 2.05382812 5.05898438 1.56640625 4.57421875 C-6.37454106 -2.90234567 -13.26251963 -4.45279798 -24.03369141 -4.35620117 C-29.47815554 -4.17909831 -35.19086744 -3.76576723 -40 -1 C-41.13853442 0.9228983 -41.13853442 0.9228983 -42 3 C-44.5 5.75 -44.5 5.75 -47 8 C-47.66 8 -48.32 8 -49 8 C-49.33 8.99 -49.66 9.98 -50 11 C-50.33 10.34 -50.66 9.68 -51 9 C-46.17924416 1.27895202 -39.87637462 -3.76884405 -31.0625 -6.375 C-20.01967092 -8.53024028 -8.98301324 -7.05808183 0 0 Z " fill="#C1C2C4" transform="translate(324,484)"/>
<path d="M0 0 C0 0.33 0 0.66 0 1 C-0.78834229 1.12004395 -1.57668457 1.24008789 -2.38891602 1.36376953 C-30.41220984 5.44640816 -30.41220984 5.44640816 -57.3828125 13.7421875 C-60.96878345 14.989145 -61.64551823 15.09415384 -65 14 C-51.757941 9.32239625 -38.54875347 5.44109401 -24.8215332 2.46142578 C-22.91884791 2.0485423 -22.91884791 2.0485423 -21 1 C-14.0137385 0.11718068 -7.03350091 -0.11722502 0 0 Z " fill="#B0B1B2" transform="translate(309,72)"/>
<path d="M0 0 C0.4846875 0.39832031 0.969375 0.79664063 1.46875 1.20703125 C9.14748103 7.27618212 16.69417169 10.14229922 26.515625 10.09765625 C28.39121094 10.09282227 28.39121094 10.09282227 30.3046875 10.08789062 C31.60664063 10.07951172 32.90859375 10.07113281 34.25 10.0625 C35.56742188 10.05798828 36.88484375 10.05347656 38.2421875 10.04882812 C41.49483741 10.03704316 44.74739584 10.02059011 48 10 C47.38253906 10.30808594 46.76507813 10.61617188 46.12890625 10.93359375 C44.72783032 11.63541711 43.33054605 12.34487022 41.9375 13.0625 C40 14 40 14 37 15 C36.505 14.01 36.505 14.01 36 13 C35.67 13.66 35.34 14.32 35 15 C34.14873535 14.77715332 34.14873535 14.77715332 33.28027344 14.54980469 C31.0321825 14.00775963 28.79493955 13.59148108 26.515625 13.203125 C25.66226563 13.0484375 24.80890625 12.89375 23.9296875 12.734375 C22.16105134 12.41467983 20.39017297 12.10712073 18.6171875 11.8125 C11.28081012 10.44656787 4.99715047 7.73011678 0 2 C0 1.34 0 0.68 0 0 Z " fill="#B6B7B7" transform="translate(153,481)"/>
<path d="M0 0 C0.66 0.33 1.32 0.66 2 1 C1.28082397 1.7113208 1.28082397 1.7113208 0.54711914 2.43701172 C-1.61701838 4.58040335 -3.77729647 6.7276439 -5.9375 8.875 C-6.69224609 9.62136719 -7.44699219 10.36773437 -8.22460938 11.13671875 C-8.94326172 11.85214844 -9.66191406 12.56757813 -10.40234375 13.3046875 C-11.06741943 13.96452637 -11.73249512 14.62436523 -12.41772461 15.30419922 C-14.57295138 17.61405961 -14.98296658 18.61674796 -15.125 21.8125 C-15.01289605 24.67115077 -14.65355437 27.22239392 -14 30 C-16.31 31.98 -18.62 33.96 -21 36 C-19 32 -19 32 -17.3125 30 C-15.77689687 28.09274551 -15.77689687 28.09274551 -16.125 25.8125 C-16.41375 25.214375 -16.7025 24.61625 -17 24 C-17.99 23.67 -18.98 23.34 -20 23 C-19.34 22.67 -18.68 22.34 -18 22 C-17.773125 21.154375 -17.54625 20.30875 -17.3125 19.4375 C-14.18198186 11.23852392 -6.5211502 5.55998294 0 0 Z " fill="#BCBDBE" transform="translate(172,126)"/>
<path d="M0 0 C0.88395466 4.19697558 1.75642035 8.39612798 2.6184082 12.59765625 C2.91312593 14.02604081 3.21095026 15.45378811 3.51196289 16.88085938 C3.94459109 18.93459192 4.36592237 20.99037197 4.78515625 23.046875 C5.04176025 24.28276367 5.29836426 25.51865234 5.56274414 26.79199219 C5.95597515 29.67700359 5.98944135 31.31059858 5 34 C3 33 3 33 2 31 C2.66 31 3.32 31 4 31 C3.84853516 30.26362305 3.69707031 29.52724609 3.54101562 28.76855469 C2.85663895 25.42984942 2.17825625 22.08995375 1.5 18.75 C1.26152344 17.59113281 1.02304687 16.43226563 0.77734375 15.23828125 C0.55175781 14.12324219 0.32617188 13.00820313 0.09375 11.859375 C-0.11572266 10.83295898 -0.32519531 9.80654297 -0.54101562 8.74902344 C-1 6 -1 6 -1 2 C-2.98 3.32 -4.96 4.64 -7 6 C-7.66 5.67 -8.32 5.34 -9 5 C-7.87926138 4.16094435 -6.75325453 3.32892169 -5.625 2.5 C-4.99851562 2.0359375 -4.37203125 1.571875 -3.7265625 1.09375 C-2 0 -2 0 0 0 Z " fill="#BABBBC" transform="translate(328,307)"/>
<path d="M0 0 C-3.64365049 0.3985737 -7.28990465 0.76446892 -10.9375 1.125 C-11.95908203 1.23714844 -12.98066406 1.34929687 -14.03320312 1.46484375 C-20.53721098 2.08823108 -25.70289887 1.77290647 -32 0 C-32 -0.33 -32 -0.66 -32 -1 C-27.76461684 -1.19220663 -23.52894629 -1.37093557 -19.29248047 -1.53710938 C-17.85091858 -1.59556424 -16.40950193 -1.65772144 -14.96826172 -1.72363281 C-12.89838095 -1.81765355 -10.82834562 -1.89841315 -8.7578125 -1.9765625 C-7.5114502 -2.02893066 -6.26508789 -2.08129883 -4.98095703 -2.13525391 C-2 -2 -2 -2 0 0 Z " fill="#CAC9CB" transform="translate(356,466)"/>
<path d="M0 0 C7.59 0 15.18 0 23 0 C23 0.33 23 0.66 23 1 C22.30132812 1.12117188 21.60265625 1.24234375 20.8828125 1.3671875 C19.97273438 1.53476562 19.06265625 1.70234375 18.125 1.875 C17.22007812 2.03742188 16.31515625 2.19984375 15.3828125 2.3671875 C12.83494012 2.83044703 12.83494012 2.83044703 11 5 C8.375 4.625 8.375 4.625 6 4 C6 3.34 6 2.68 6 2 C3.03 1.505 3.03 1.505 0 1 C0 0.67 0 0.34 0 0 Z " fill="#C5C6C6" transform="translate(473,492)"/>
<path d="M0 0 C0.33 0 0.66 0 1 0 C1.33 4.95 1.66 9.9 2 15 C2.66 15 3.32 15 4 15 C4.99 15 5.98 15 7 15 C5.02 16.65 3.04 18.3 1 20 C0 19 0 19 -0.11352539 17.14233398 C-0.10828857 16.35157471 -0.10305176 15.56081543 -0.09765625 14.74609375 C-0.09443359 13.89208984 -0.09121094 13.03808594 -0.08789062 12.15820312 C-0.07951172 11.26037109 -0.07113281 10.36253906 -0.0625 9.4375 C-0.05798828 8.53580078 -0.05347656 7.63410156 -0.04882812 6.70507812 C-0.03700225 4.46998686 -0.0205222 2.23502563 0 0 Z " fill="#BBBBBE" transform="translate(331,239)"/>
<path d="M0 0 C0.79953138 3.28696233 1.09658936 4.71023192 0 8 C-0.99 8 -1.98 8 -3 8 C-3.33 7.01 -3.66 6.02 -4 5 C-3.67 4.34 -3.34 3.68 -3 3 C-3.99 2.67 -4.98 2.34 -6 2 C-2.25 0 -2.25 0 0 0 Z M-3 2 C-2.01 3.485 -2.01 3.485 -1 5 C-1 4.01 -1 3.02 -1 2 C-1.66 2 -2.32 2 -3 2 Z " fill="#E3E3E4" transform="translate(339,369)"/>
<path d="M0 0 C1.485 0.99 1.485 0.99 3 2 C2.67 6.95 2.34 11.9 2 17 C1.67 17 1.34 17 1 17 C0.67 11.39 0.34 5.78 0 0 Z " fill="#D9D9DA" transform="translate(123,309)"/>
<path d="M0 0 C4.95696581 1.23924145 7.11658466 2.78577758 10 7 C5.56541027 5.6062718 3.12621626 3.39417765 0 0 Z " fill="#BEBFC1" transform="translate(395,345)"/>
<path d="M0 0 C2.97 0 5.94 0 9 0 C6 2 6 2 2.8125 1.625 C1.884375 1.41875 0.95625 1.2125 0 1 C0 0.67 0 0.34 0 0 Z " fill="#FFFFFF" transform="translate(470,494)"/>
<path d="M0 0 C2.31 0.33 4.62 0.66 7 1 C6.34 1.66 5.68 2.32 5 3 C2.525 2.01 2.525 2.01 0 1 C0 0.67 0 0.34 0 0 Z " fill="#F4F4F4" transform="translate(301,550)"/>
<path d="M0 0 C2.97 0.495 2.97 0.495 6 1 C5.01 1.33 4.02 1.66 3 2 C2.34 1.67 1.68 1.34 1 1 C0.67 1.66 0.34 2.32 0 3 C0 2.01 0 1.02 0 0 Z " fill="#FFFFFF" transform="translate(398,134)"/>
<path d="M0 0 C2.64 0 5.28 0 8 0 C8 0.33 8 0.66 8 1 C5.36 1 2.72 1 0 1 C0 0.67 0 0.34 0 0 Z " fill="#FFFFFF" transform="translate(338,450)"/>
<path d="M0 0 C0.33 0 0.66 0 1 0 C1 2.31 1 4.62 1 7 C-0.0625 5.1875 -0.0625 5.1875 -1 3 C-0.67 2.01 -0.34 1.02 0 0 Z " fill="#FFFFFF" transform="translate(143,433)"/>
<path d="M0 0 C0.33 0 0.66 0 1 0 C1 2.31 1 4.62 1 7 C0.67 7 0.34 7 0 7 C0 4.69 0 2.38 0 0 Z " fill="#FFFFFF" transform="translate(142,420)"/>
<path d="M0 0 C0.33 0 0.66 0 1 0 C1 2.31 1 4.62 1 7 C0.67 7 0.34 7 0 7 C0 4.69 0 2.38 0 0 Z " fill="#FFFFFF" transform="translate(134,338)"/>
<path d="M0 0 C2.31 0 4.62 0 7 0 C7 0.33 7 0.66 7 1 C4.69 1 2.38 1 0 1 C0 0.67 0 0.34 0 0 Z " fill="#FFFFFF" transform="translate(168,298)"/>
<path d="M0 0 C2.125 0.375 2.125 0.375 4 1 C2.02 1.33 0.04 1.66 -2 2 C-1.34 1.34 -0.68 0.68 0 0 Z " fill="#FFFFFF" transform="translate(304,125)"/>
<path d="M0 0 C0.66 0.66 1.32 1.32 2 2 C0.35 2 -1.3 2 -3 2 C-2.01 1.34 -1.02 0.68 0 0 Z " fill="#FFFFFF" transform="translate(306,474)"/>
<path d="M0 0 C0.66 0 1.32 0 2 0 C2 1.65 2 3.3 2 5 C0 1.125 0 1.125 0 0 Z " fill="#FFFFFF" transform="translate(535,393)"/>
<path d="M0 0 C0.33 0 0.66 0 1 0 C1 1.65 1 3.3 1 5 C0.34 4.67 -0.32 4.34 -1 4 C-0.67 2.68 -0.34 1.36 0 0 Z " fill="#FFFFFF" transform="translate(91,330)"/>
<path d="M0 0 C0.66 1.32 1.32 2.64 2 4 C1.01 4.495 1.01 4.495 0 5 C0 3.35 0 1.7 0 0 Z " fill="#FFFFFF" transform="translate(578,316)"/>
<path d="M0 0 C1.98 0 3.96 0 6 0 C6 0.33 6 0.66 6 1 C4.02 1 2.04 1 0 1 C0 0.67 0 0.34 0 0 Z " fill="#FFFFFF" transform="translate(493,298)"/>
<path d="M0 0 C1.98 0 3.96 0 6 0 C6 0.33 6 0.66 6 1 C4.02 1 2.04 1 0 1 C0 0.67 0 0.34 0 0 Z " fill="#FFFFFF" transform="translate(302,70)"/>
<path d="M0 0 C1.65 0 3.3 0 5 0 C5 0.33 5 0.66 5 1 C3.35 1 1.7 1 0 1 C0 0.67 0 0.34 0 0 Z " fill="#ECECEC" transform="translate(173,494)"/>
<path d="M0 0 C0.66 0 1.32 0 2 0 C1.67 1.32 1.34 2.64 1 4 C0.67 2.68 0.34 1.36 0 0 Z " fill="#FFFFFF" transform="translate(358,492)"/>
<path d="M0 0 C0.33 0 0.66 0 1 0 C1 1.65 1 3.3 1 5 C0.67 5 0.34 5 0 5 C0 3.35 0 1.7 0 0 Z " fill="#FFFFFF" transform="translate(144,444)"/>
<path d="M0 0 C0.99 1.485 0.99 1.485 2 3 C1.01 3.495 1.01 3.495 0 4 C0 2.68 0 1.36 0 0 Z " fill="#FFFFFF" transform="translate(368,441)"/>
<path d="M0 0 C0.66 0 1.32 0 2 0 C1.67 1.32 1.34 2.64 1 4 C0.67 2.68 0.34 1.36 0 0 Z " fill="#FFFFFF" transform="translate(135,364)"/>
<path d="M0 0 C0.33 0 0.66 0 1 0 C1 1.65 1 3.3 1 5 C0.67 5 0.34 5 0 5 C0 3.35 0 1.7 0 0 Z " fill="#FFFFFF" transform="translate(578,324)"/>
<path d="M0 0 C0.66 0 1.32 0 2 0 C2 0.66 2 1.32 2 2 C1.01 1.67 0.02 1.34 -1 1 C-0.67 0.67 -0.34 0.34 0 0 Z " fill="#FFFFFF" transform="translate(419,142)"/>
<path d="M0 0 C1.65 0 3.3 0 5 0 C5 0.33 5 0.66 5 1 C3.35 1 1.7 1 0 1 C0 0.67 0 0.34 0 0 Z " fill="#FFFFFF" transform="translate(359,125)"/>
<path d="M0 0 C1.485 0.99 1.485 0.99 3 2 C1.68 1.67 0.36 1.34 -1 1 C-0.67 0.67 -0.34 0.34 0 0 Z " fill="#FFFFFF" transform="translate(392,74)"/>
<path d="M0 0 C0.66 0.33 1.32 0.66 2 1 C1.01 1 0.02 1 -1 1 C-0.67 0.67 -0.34 0.34 0 0 Z " fill="#FFFFFF" transform="translate(194,494)"/>
<path d="M0 0 C4 1 4 1 4 1 Z " fill="#FFFFFF" transform="translate(545,479)"/>
<path d="M0 0 C4 1 4 1 4 1 Z " fill="#FFFFFF" transform="translate(121,479)"/>
<path d="M0 0 C4 1 4 1 4 1 Z " fill="#FFFFFF" transform="translate(117,478)"/>
<path d="M0 0 C0.33 0.66 0.66 1.32 1 2 C0.01 1.67 -0.98 1.34 -2 1 C-1.34 0.67 -0.68 0.34 0 0 Z " fill="#FFFFFF" transform="translate(332,449)"/>
<path d="M0 0 C0 3 0 3 0 3 Z " fill="#FFFFFF" transform="translate(71,429)"/>
<path d="M0 0 C0.66 0 1.32 0 2 0 C1.67 0.99 1.34 1.98 1 3 C0.67 2.01 0.34 1.02 0 0 Z " fill="#FFFFFF" transform="translate(346,429)"/>
<path d="M0 0 C1 4 1 4 1 4 Z " fill="#FFFFFF" transform="translate(344,412)"/>
<path d="M0 0 C1 4 1 4 1 4 Z " fill="#FFFFFF" transform="translate(66,394)"/>
<path d="M0 0 C1 4 1 4 1 4 Z " fill="#FFFFFF" transform="translate(136,370)"/>
<path d="M0 0 C1 4 1 4 1 4 Z " fill="#FFFFFF" transform="translate(135,354)"/>
<path d="M0 0 C1 4 1 4 1 4 Z " fill="#FFFFFF" transform="translate(578,331)"/>
<path d="M0 0 C1 4 1 4 1 4 Z " fill="#FFFFFF" transform="translate(328,324)"/>
<path d="M0 0 C0.99 0.495 0.99 0.495 2 1 C1.67 1.66 1.34 2.32 1 3 C0.67 2.01 0.34 1.02 0 0 Z " fill="#FFFFFF" transform="translate(347,191)"/>
<path d="M0 0 C0.99 0 1.98 0 3 0 C2.67 0.66 2.34 1.32 2 2 C1.34 1.34 0.68 0.68 0 0 Z " fill="#FFFFFF" transform="translate(186,183)"/>
<path d="M0 0 C1.485 0.99 1.485 0.99 3 2 C2.01 2 1.02 2 0 2 C0 1.34 0 0.68 0 0 Z " fill="#FFFFFF" transform="translate(422,143)"/>
<path d="M0 0 C0.66 0.33 1.32 0.66 2 1 C1.01 1 0.02 1 -1 1 C-0.67 0.67 -0.34 0.34 0 0 Z " fill="#FFFFFF" transform="translate(362,137)"/>
<path d="M0 0 C1.485 0.99 1.485 0.99 3 2 C2.01 2 1.02 2 0 2 C0 1.34 0 0.68 0 0 Z " fill="#FFFFFF" transform="translate(390,131)"/>
<path d="M0 0 C4 1 4 1 4 1 Z " fill="#FFFFFF" transform="translate(333,68)"/>
<path d="M0 0 C3 1 3 1 3 1 Z " fill="#FFFFFF" transform="translate(334,532)"/>
<path d="M0 0 C0.66 0 1.32 0 2 0 C1.67 0.66 1.34 1.32 1 2 C0.67 1.34 0.34 0.68 0 0 Z " fill="#FFFFFF" transform="translate(316,532)"/>
<path d="" fill="#FFFFFF" transform="translate(0,0)"/>
<path d="" fill="#FFFFFF" transform="translate(0,0)"/>
<path d="M0 0 C3 1 3 1 3 1 Z " fill="#FFFFFF" transform="translate(462,492)"/>
<path d="" fill="#FFFFFF" transform="translate(0,0)"/>
<path d="M0 0 C0.66 0 1.32 0 2 0 C1.67 0.66 1.34 1.32 1 2 C0.67 1.34 0.34 0.68 0 0 Z " fill="#FFFFFF" transform="translate(323,481)"/>
<path d="" fill="#FFFFFF" transform="translate(0,0)"/>
<path d="" fill="#FFFFFF" transform="translate(0,0)"/>
<path d="" fill="#FFFFFF" transform="translate(0,0)"/>
<path d="M0 0 C0.66 0.66 1.32 1.32 2 2 C1.34 2 0.68 2 0 2 C0 1.34 0 0.68 0 0 Z " fill="#FFFFFF" transform="translate(384,380)"/>
<path d="" fill="#FFFFFF" transform="translate(0,0)"/>
<path d="" fill="#FFFFFF" transform="translate(0,0)"/>
<path d="M0 0 C0.99 0.495 0.99 0.495 2 1 C1.01 1.495 1.01 1.495 0 2 C0 1.34 0 0.68 0 0 Z " fill="#FFFFFF" transform="translate(257,314)"/>
<path d="" fill="#FFFFFF" transform="translate(0,0)"/>
<path d="M0 0 C0.66 0 1.32 0 2 0 C1.67 0.66 1.34 1.32 1 2 C0.67 1.34 0.34 0.68 0 0 Z " fill="#FFFFFF" transform="translate(577,302)"/>
<path d="M0 0 C3 1 3 1 3 1 Z " fill="#FFFFFF" transform="translate(160,299)"/>
<path d="M0 0 C3 1 3 1 3 1 Z " fill="#FFFFFF" transform="translate(488,298)"/>
<path d="M0 0 C0.66 0.66 1.32 1.32 2 2 C1.34 2 0.68 2 0 2 C0 1.34 0 0.68 0 0 Z " fill="#FFFFFF" transform="translate(163,297)"/>
<path d="M0 0 C0.99 0.495 0.99 0.495 2 1 C1.01 1.495 1.01 1.495 0 2 C0 1.34 0 0.68 0 0 Z " fill="#FFFFFF" transform="translate(138,247)"/>
<path d="M0 0 C0.99 0.495 0.99 0.495 2 1 C1.01 1.495 1.01 1.495 0 2 C0 1.34 0 0.68 0 0 Z " fill="#FFFFFF" transform="translate(344,243)"/>
<path d="" fill="#FFFFFF" transform="translate(0,0)"/>
<path d="" fill="#FFFFFF" transform="translate(0,0)"/>
<path d="" fill="#FFFFFF" transform="translate(0,0)"/>
<path d="" fill="#FFFFFF" transform="translate(0,0)"/>
<path d="" fill="#FFFFFF" transform="translate(0,0)"/>
<path d="M0 0 C0.66 0 1.32 0 2 0 C1.67 0.66 1.34 1.32 1 2 C0.67 1.34 0.34 0.68 0 0 Z " fill="#FFFFFF" transform="translate(514,148)"/>
<path d="M0 0 C3 1 3 1 3 1 Z " fill="#FFFFFF" transform="translate(342,148)"/>
<path d="" fill="#FFFFFF" transform="translate(0,0)"/>
<path d="M0 0 C0.33 0.66 0.66 1.32 1 2 C0.34 1.67 -0.32 1.34 -1 1 C-0.67 0.67 -0.34 0.34 0 0 Z " fill="#FFFFFF" transform="translate(266,134)"/>
<path d="M0 0 C3 1 3 1 3 1 Z " fill="#FFFFFF" transform="translate(378,128)"/>
<path d="M0 0 C3 1 3 1 3 1 Z " fill="#FFFFFF" transform="translate(368,126)"/>
<path d="M0 0 C0.99 0.495 0.99 0.495 2 1 C1.01 1.495 1.01 1.495 0 2 C0 1.34 0 0.68 0 0 Z " fill="#FFFFFF" transform="translate(298,126)"/>
<path d="M0 0 C3 1 3 1 3 1 Z " fill="#FFFFFF" transform="translate(312,124)"/>
<path d="M0 0 C0.99 0.495 0.99 0.495 2 1 C1.01 1.495 1.01 1.495 0 2 C0 1.34 0 0.68 0 0 Z " fill="#FFFFFF" transform="translate(175,121)"/>
<path d="M0 0 C0.99 0.495 0.99 0.495 2 1 C1.01 1.495 1.01 1.495 0 2 C0 1.34 0 0.68 0 0 Z " fill="#FFFFFF" transform="translate(458,99)"/>
<path d="M0 0 C0.66 0.66 1.32 1.32 2 2 C1.34 2 0.68 2 0 2 C0 1.34 0 0.68 0 0 Z " fill="#FFFFFF" transform="translate(440,90)"/>
<path d="M0 0 C3 1 3 1 3 1 Z " fill="#FFFFFF" transform="translate(414,81)"/>
<path d="M0 0 C3 1 3 1 3 1 Z " fill="#FFFFFF" transform="translate(252,81)"/>
<path d="M0 0 C0.66 0.66 1.32 1.32 2 2 C1.34 2 0.68 2 0 2 C0 1.34 0 0.68 0 0 Z " fill="#FFFFFF" transform="translate(388,73)"/>
<path d="M0 0 C3 1 3 1 3 1 Z " fill="#FFFFFF" transform="translate(383,73)"/>
<path d="M0 0 C3 1 3 1 3 1 Z " fill="#FFFFFF" transform="translate(326,68)"/>
<path d="M0 0 C2 1 2 1 2 1 Z " fill="#FFFFFF" transform="translate(298,549)"/>
<path d="" fill="#FFFFFF" transform="translate(0,0)"/>
<path d="M0 0 C2 1 2 1 2 1 Z " fill="#FFFFFF" transform="translate(340,531)"/>
<path d="" fill="#FFFFFF" transform="translate(0,0)"/>
<path d="M0 0 C2 1 2 1 2 1 Z " fill="#FFFFFF" transform="translate(497,495)"/>
<path d="M0 0 C2 1 2 1 2 1 Z " fill="#FFFFFF" transform="translate(493,494)"/>
<path d="M0 0 C2 1 2 1 2 1 Z " fill="#FFFFFF" transform="translate(198,494)"/>
<path d="M0 0 C2 1 2 1 2 1 Z " fill="#FFFFFF" transform="translate(498,493)"/>
<path d="" fill="#FFFFFF" transform="translate(0,0)"/>
<path d="M0 0 C2 1 2 1 2 1 Z " fill="#FFFFFF" transform="translate(167,493)"/>
<path d="M0 0 C2 1 2 1 2 1 Z " fill="#FFFFFF" transform="translate(554,479)"/>
<path d="M0 0 C2 1 2 1 2 1 Z " fill="#FFFFFF" transform="translate(550,478)"/>
<path d="M0 0 C2 1 2 1 2 1 Z " fill="#FFFFFF" transform="translate(554,477)"/>
<path d="M0 0 C2 1 2 1 2 1 Z " fill="#FFFFFF" transform="translate(316,475)"/>
<path d="" fill="#FFFFFF" transform="translate(0,0)"/>
<path d="" fill="#FFFFFF" transform="translate(0,0)"/>
<path d="" fill="#FFFFFF" transform="translate(0,0)"/>
<path d="M0 0 C2 1 2 1 2 1 Z " fill="#FFFFFF" transform="translate(351,467)"/>
<path d="M0 0 C2 1 2 1 2 1 Z " fill="#FFFFFF" transform="translate(305,463)"/>
<path d="" fill="#FFFFFF" transform="translate(0,0)"/>
<path d="" fill="#FFFFFF" transform="translate(0,0)"/>
<path d="" fill="#FFFFFF" transform="translate(0,0)"/>
<path d="M0 0 C2 1 2 1 2 1 Z " fill="#FFFFFF" transform="translate(323,449)"/>
<path d="" fill="#FFFFFF" transform="translate(0,0)"/>
<path d="" fill="#FFFFFF" transform="translate(0,0)"/>
<path d="" fill="#FFFFFF" transform="translate(0,0)"/>
<path d="" fill="#FFFFFF" transform="translate(0,0)"/>
<path d="" fill="#FFFFFF" transform="translate(0,0)"/>
<path d="" fill="#FFFFFF" transform="translate(0,0)"/>
<path d="" fill="#FFFFFF" transform="translate(0,0)"/>
<path d="" fill="#FFFFFF" transform="translate(0,0)"/>
<path d="M0 0 C2 1 2 1 2 1 Z " fill="#FFFFFF" transform="translate(324,419)"/>
<path d="" fill="#FFFFFF" transform="translate(0,0)"/>
<path d="" fill="#FFFFFF" transform="translate(0,0)"/>
<path d="" fill="#FFFFFF" transform="translate(0,0)"/>
<path d="" fill="#FFFFFF" transform="translate(0,0)"/>
<path d="" fill="#FFFFFF" transform="translate(0,0)"/>
<path d="" fill="#FFFFFF" transform="translate(0,0)"/>
<path d="" fill="#FFFFFF" transform="translate(0,0)"/>
<path d="" fill="#FFFFFF" transform="translate(0,0)"/>
<path d="" fill="#FFFFFF" transform="translate(0,0)"/>
<path d="" fill="#FFFFFF" transform="translate(0,0)"/>
<path d="" fill="#FFFFFF" transform="translate(0,0)"/>
<path d="" fill="#FFFFFF" transform="translate(0,0)"/>
<path d="" fill="#FFFFFF" transform="translate(0,0)"/>
<path d="" fill="#FFFFFF" transform="translate(0,0)"/>
<path d="M0 0 C2 1 2 1 2 1 Z " fill="#FFFFFF" transform="translate(448,386)"/>
<path d="" fill="#FFFFFF" transform="translate(0,0)"/>
<path d="" fill="#FFFFFF" transform="translate(0,0)"/>
<path d="" fill="#FFFFFF" transform="translate(0,0)"/>
<path d="" fill="#FFFFFF" transform="translate(0,0)"/>
<path d="" fill="#FFFFFF" transform="translate(0,0)"/>
<path d="" fill="#FFFFFF" transform="translate(0,0)"/>
<path d="" fill="#FFFFFF" transform="translate(0,0)"/>
<path d="M0 0 C2 1 2 1 2 1 Z " fill="#FFFFFF" transform="translate(450,367)"/>
<path d="" fill="#FFFFFF" transform="translate(0,0)"/>
<path d="" fill="#FFFFFF" transform="translate(0,0)"/>
<path d="" fill="#FFFFFF" transform="translate(0,0)"/>
<path d="" fill="#FFFFFF" transform="translate(0,0)"/>
<path d="" fill="#FFFFFF" transform="translate(0,0)"/>
<path d="" fill="#FFFFFF" transform="translate(0,0)"/>
<path d="" fill="#FFFFFF" transform="translate(0,0)"/>
<path d="" fill="#FFFFFF" transform="translate(0,0)"/>
<path d="" fill="#FFFFFF" transform="translate(0,0)"/>
<path d="M0 0 C2 1 2 1 2 1 Z " fill="#FFFFFF" transform="translate(369,334)"/>
<path d="M0 0 C2 1 2 1 2 1 Z " fill="#FFFFFF" transform="translate(362,333)"/>
<path d="" fill="#FFFFFF" transform="translate(0,0)"/>
<path d="" fill="#FFFFFF" transform="translate(0,0)"/>
<path d="" fill="#FFFFFF" transform="translate(0,0)"/>
<path d="M0 0 C2 1 2 1 2 1 Z " fill="#FFFFFF" transform="translate(203,305)"/>
<path d="" fill="#FFFFFF" transform="translate(0,0)"/>
<path d="M0 0 C2 1 2 1 2 1 Z " fill="#FFFFFF" transform="translate(192,298)"/>
<path d="" fill="#FFFFFF" transform="translate(0,0)"/>
<path d="" fill="#FFFFFF" transform="translate(0,0)"/>
<path d="" fill="#FFFFFF" transform="translate(0,0)"/>
<path d="" fill="#FFFFFF" transform="translate(0,0)"/>
<path d="" fill="#FFFFFF" transform="translate(0,0)"/>
<path d="M0 0 C2 1 2 1 2 1 Z " fill="#FFFFFF" transform="translate(314,266)"/>
<path d="" fill="#FFFFFF" transform="translate(0,0)"/>
<path d="" fill="#FFFFFF" transform="translate(0,0)"/>
<path d="" fill="#FFFFFF" transform="translate(0,0)"/>
<path d="" fill="#FFFFFF" transform="translate(0,0)"/>
<path d="" fill="#FFFFFF" transform="translate(0,0)"/>
<path d="" fill="#FFFFFF" transform="translate(0,0)"/>
<path d="" fill="#FFFFFF" transform="translate(0,0)"/>
<path d="" fill="#FFFFFF" transform="translate(0,0)"/>
<path d="" fill="#FFFFFF" transform="translate(0,0)"/>
<path d="" fill="#FFFFFF" transform="translate(0,0)"/>
<path d="M0 0 C2 1 2 1 2 1 Z " fill="#FFFFFF" transform="translate(366,212)"/>
<path d="M0 0 C2 1 2 1 2 1 Z " fill="#FFFFFF" transform="translate(155,212)"/>
<path d="M0 0 C2 1 2 1 2 1 Z " fill="#FFFFFF" transform="translate(156,210)"/>
<path d="" fill="#FFFFFF" transform="translate(0,0)"/>
<path d="" fill="#FFFFFF" transform="translate(0,0)"/>
<path d="M0 0 C2 1 2 1 2 1 Z " fill="#FFFFFF" transform="translate(181,180)"/>
<path d="M0 0 C2 1 2 1 2 1 Z " fill="#FFFFFF" transform="translate(466,175)"/>
<path d="M0 0 C2 1 2 1 2 1 Z " fill="#FFFFFF" transform="translate(152,156)"/>
<path d="M0 0 C2 1 2 1 2 1 Z " fill="#FFFFFF" transform="translate(513,152)"/>
<path d="" fill="#FFFFFF" transform="translate(0,0)"/>
<path d="M0 0 C2 1 2 1 2 1 Z " fill="#FFFFFF" transform="translate(236,148)"/>
<path d="M0 0 C2 1 2 1 2 1 Z " fill="#FFFFFF" transform="translate(417,141)"/>
<path d="" fill="#FFFFFF" transform="translate(0,0)"/>
<path d="M0 0 C2 1 2 1 2 1 Z " fill="#FFFFFF" transform="translate(252,140)"/>
<path d="M0 0 C2 1 2 1 2 1 Z " fill="#FFFFFF" transform="translate(367,139)"/>
<path d="" fill="#FFFFFF" transform="translate(0,0)"/>
<path d="M0 0 C2 1 2 1 2 1 Z " fill="#FFFFFF" transform="translate(364,138)"/>
<path d="" fill="#FFFFFF" transform="translate(0,0)"/>
<path d="M0 0 C2 1 2 1 2 1 Z " fill="#FFFFFF" transform="translate(405,136)"/>
<path d="" fill="#FFFFFF" transform="translate(0,0)"/>
<path d="M0 0 C2 1 2 1 2 1 Z " fill="#FFFFFF" transform="translate(290,128)"/>
<path d="M0 0 C2 1 2 1 2 1 Z " fill="#FFFFFF" transform="translate(191,107)"/>
<path d="M0 0 C2 1 2 1 2 1 Z " fill="#FFFFFF" transform="translate(467,105)"/>
<path d="M0 0 C2 1 2 1 2 1 Z " fill="#FFFFFF" transform="translate(214,97)"/>
<path d="M0 0 C2 1 2 1 2 1 Z " fill="#FFFFFF" transform="translate(231,89)"/>
<path d="" fill="#FFFFFF" transform="translate(0,0)"/>
<path d="M0 0 C2 1 2 1 2 1 Z " fill="#FFFFFF" transform="translate(250,82)"/>
<path d="M0 0 C2 1 2 1 2 1 Z " fill="#FFFFFF" transform="translate(262,78)"/>
<path d="" fill="#FFFFFF" transform="translate(0,0)"/>
<path d="M0 0 C2 1 2 1 2 1 Z " fill="#FFFFFF" transform="translate(361,70)"/>
<path d="M0 0 C2 1 2 1 2 1 Z " fill="#FFFFFF" transform="translate(330,68)"/>
<path d="" fill="#FFFFFF" transform="translate(0,0)"/>
<path d="" fill="#FFFFFF" transform="translate(0,0)"/>
<path d="" fill="#FFFFFF" transform="translate(0,0)"/>
<path d="" fill="#FFFFFF" transform="translate(0,0)"/>
<path d="" fill="#FFFFFF" transform="translate(0,0)"/>
<path d="" fill="#FFFFFF" transform="translate(0,0)"/>
<path d="" fill="#FFFFFF" transform="translate(0,0)"/>
<path d="" fill="#FFFFFF" transform="translate(0,0)"/>
<path d="" fill="#FFFFFF" transform="translate(0,0)"/>
<path d="" fill="#FFFFFF" transform="translate(0,0)"/>
<path d="" fill="#FFFFFF" transform="translate(0,0)"/>
<path d="" fill="#FFFFFF" transform="translate(0,0)"/>
<path d="" fill="#FFFFFF" transform="translate(0,0)"/>
<path d="" fill="#FFFFFF" transform="translate(0,0)"/>
<path d="" fill="#FFFFFF" transform="translate(0,0)"/>
<path d="" fill="#FFFFFF" transform="translate(0,0)"/>
<path d="" fill="#FFFFFF" transform="translate(0,0)"/>
<path d="" fill="#FFFFFF" transform="translate(0,0)"/>
<path d="" fill="#FFFFFF" transform="translate(0,0)"/>
<path d="" fill="#FFFFFF" transform="translate(0,0)"/>
<path d="" fill="#FFFFFF" transform="translate(0,0)"/>
<path d="" fill="#FFFFFF" transform="translate(0,0)"/>
<path d="" fill="#FFFFFF" transform="translate(0,0)"/>
<path d="" fill="#FFFFFF" transform="translate(0,0)"/>
<path d="" fill="#FFFFFF" transform="translate(0,0)"/>
<path d="" fill="#FFFFFF" transform="translate(0,0)"/>
<path d="" fill="#FFFFFF" transform="translate(0,0)"/>
<path d="" fill="#FFFFFF" transform="translate(0,0)"/>
<path d="" fill="#FFFFFF" transform="translate(0,0)"/>
<path d="" fill="#FFFFFF" transform="translate(0,0)"/>
<path d="" fill="#FFFFFF" transform="translate(0,0)"/>
<path d="" fill="#FFFFFF" transform="translate(0,0)"/>
<path d="" fill="#FFFFFF" transform="translate(0,0)"/>
<path d="" fill="#FFFFFF" transform="translate(0,0)"/>
<path d="" fill="#FFFFFF" transform="translate(0,0)"/>
<path d="" fill="#FFFFFF" transform="translate(0,0)"/>
<path d="" fill="#FFFFFF" transform="translate(0,0)"/>
<path d="" fill="#FFFFFF" transform="translate(0,0)"/>
<path d="" fill="#FFFFFF" transform="translate(0,0)"/>
<path d="" fill="#FFFFFF" transform="translate(0,0)"/>
<path d="" fill="#FFFFFF" transform="translate(0,0)"/>
<path d="" fill="#FFFFFF" transform="translate(0,0)"/>
<path d="" fill="#FFFFFF" transform="translate(0,0)"/>
<path d="" fill="#FFFFFF" transform="translate(0,0)"/>
<path d="" fill="#FFFFFF" transform="translate(0,0)"/>
<path d="" fill="#FFFFFF" transform="translate(0,0)"/>
<path d="" fill="#FFFFFF" transform="translate(0,0)"/>
<path d="" fill="#FFFFFF" transform="translate(0,0)"/>
<path d="" fill="#FFFFFF" transform="translate(0,0)"/>
<path d="" fill="#FFFFFF" transform="translate(0,0)"/>
<path d="" fill="#FFFFFF" transform="translate(0,0)"/>
<path d="" fill="#FFFFFF" transform="translate(0,0)"/>
<path d="" fill="#FFFFFF" transform="translate(0,0)"/>
<path d="" fill="#FFFFFF" transform="translate(0,0)"/>
<path d="" fill="#FFFFFF" transform="translate(0,0)"/>
<path d="" fill="#FFFFFF" transform="translate(0,0)"/>
<path d="" fill="#FFFFFF" transform="translate(0,0)"/>
<path d="" fill="#FFFFFF" transform="translate(0,0)"/>
<path d="" fill="#FFFFFF" transform="translate(0,0)"/>
<path d="" fill="#FFFFFF" transform="translate(0,0)"/>
<path d="" fill="#FFFFFF" transform="translate(0,0)"/>
<path d="" fill="#FFFFFF" transform="translate(0,0)"/>
<path d="" fill="#FFFFFF" transform="translate(0,0)"/>
<path d="" fill="#FFFFFF" transform="translate(0,0)"/>
<path d="" fill="#FFFFFF" transform="translate(0,0)"/>
<path d="" fill="#FFFFFF" transform="translate(0,0)"/>
<path d="" fill="#FFFFFF" transform="translate(0,0)"/>
<path d="" fill="#FFFFFF" transform="translate(0,0)"/>
<path d="" fill="#FFFFFF" transform="translate(0,0)"/>
<path d="" fill="#FFFFFF" transform="translate(0,0)"/>
<path d="" fill="#FFFFFF" transform="translate(0,0)"/>
<path d="" fill="#FFFFFF" transform="translate(0,0)"/>
<path d="" fill="#FFFFFF" transform="translate(0,0)"/>
<path d="" fill="#FFFFFF" transform="translate(0,0)"/>
<path d="" fill="#FFFFFF" transform="translate(0,0)"/>
<path d="" fill="#FFFFFF" transform="translate(0,0)"/>
<path d="" fill="#FFFFFF" transform="translate(0,0)"/>
<path d="" fill="#FFFFFF" transform="translate(0,0)"/>
<path d="" fill="#FFFFFF" transform="translate(0,0)"/>
<path d="" fill="#FFFFFF" transform="translate(0,0)"/>
<path d="" fill="#FFFFFF" transform="translate(0,0)"/>
<path d="" fill="#FFFFFF" transform="translate(0,0)"/>
<path d="" fill="#FFFFFF" transform="translate(0,0)"/>
<path d="" fill="#FFFFFF" transform="translate(0,0)"/>
<path d="" fill="#FFFFFF" transform="translate(0,0)"/>
<path d="" fill="#FFFFFF" transform="translate(0,0)"/>
<path d="" fill="#FFFFFF" transform="translate(0,0)"/>
<path d="" fill="#FFFFFF" transform="translate(0,0)"/>
<path d="" fill="#FFFFFF" transform="translate(0,0)"/>
<path d="" fill="#FFFFFF" transform="translate(0,0)"/>
<path d="" fill="#FFFFFF" transform="translate(0,0)"/>
<path d="" fill="#FFFFFF" transform="translate(0,0)"/>
<path d="" fill="#FFFFFF" transform="translate(0,0)"/>
<path d="" fill="#FFFFFF" transform="translate(0,0)"/>
<path d="" fill="#FFFFFF" transform="translate(0,0)"/>
<path d="" fill="#FFFFFF" transform="translate(0,0)"/>
<path d="" fill="#FFFFFF" transform="translate(0,0)"/>
<path d="" fill="#FFFFFF" transform="translate(0,0)"/>
<path d="" fill="#FFFFFF" transform="translate(0,0)"/>
<path d="" fill="#FFFFFF" transform="translate(0,0)"/>
<path d="" fill="#FFFFFF" transform="translate(0,0)"/>
<path d="" fill="#FFFFFF" transform="translate(0,0)"/>
<path d="" fill="#FFFFFF" transform="translate(0,0)"/>
<path d="" fill="#FFFFFF" transform="translate(0,0)"/>
<path d="" fill="#FFFFFF" transform="translate(0,0)"/>
<path d="" fill="#FFFFFF" transform="translate(0,0)"/>
<path d="" fill="#FFFFFF" transform="translate(0,0)"/>
<path d="" fill="#FFFFFF" transform="translate(0,0)"/>
<path d="" fill="#FFFFFF" transform="translate(0,0)"/>
<path d="" fill="#FFFFFF" transform="translate(0,0)"/>
<path d="" fill="#FFFFFF" transform="translate(0,0)"/>
<path d="" fill="#FFFFFF" transform="translate(0,0)"/>
<path d="" fill="#FFFFFF" transform="translate(0,0)"/>
<path d="" fill="#FFFFFF" transform="translate(0,0)"/>
<path d="" fill="#FFFFFF" transform="translate(0,0)"/>
<path d="" fill="#FFFFFF" transform="translate(0,0)"/>
<path d="" fill="#FFFFFF" transform="translate(0,0)"/>
<path d="" fill="#FFFFFF" transform="translate(0,0)"/>
<path d="" fill="#FFFFFF" transform="translate(0,0)"/>
<path d="" fill="#FFFFFF" transform="translate(0,0)"/>
<path d="" fill="#FFFFFF" transform="translate(0,0)"/>
<path d="" fill="#FFFFFF" transform="translate(0,0)"/>
<path d="" fill="#FFFFFF" transform="translate(0,0)"/>
<path d="" fill="#FFFFFF" transform="translate(0,0)"/>
<path d="" fill="#FFFFFF" transform="translate(0,0)"/>
<path d="" fill="#FFFFFF" transform="translate(0,0)"/>
<path d="" fill="#FFFFFF" transform="translate(0,0)"/>
<path d="" fill="#FFFFFF" transform="translate(0,0)"/>
<path d="" fill="#FFFFFF" transform="translate(0,0)"/>
<path d="" fill="#FFFFFF" transform="translate(0,0)"/>
<path d="" fill="#FFFFFF" transform="translate(0,0)"/>
<path d="" fill="#FFFFFF" transform="translate(0,0)"/>
<path d="" fill="#FFFFFF" transform="translate(0,0)"/>
<path d="" fill="#FFFFFF" transform="translate(0,0)"/>
<path d="" fill="#FFFFFF" transform="translate(0,0)"/>
<path d="" fill="#FFFFFF" transform="translate(0,0)"/>
<path d="" fill="#FFFFFF" transform="translate(0,0)"/>
<path d="" fill="#FFFFFF" transform="translate(0,0)"/>
<path d="" fill="#FFFFFF" transform="translate(0,0)"/>
<path d="" fill="#FFFFFF" transform="translate(0,0)"/>
<path d="" fill="#FFFFFF" transform="translate(0,0)"/>
<path d="" fill="#FFFFFF" transform="translate(0,0)"/>
<path d="" fill="#FFFFFF" transform="translate(0,0)"/>
<path d="" fill="#FFFFFF" transform="translate(0,0)"/>
<path d="" fill="#FFFFFF" transform="translate(0,0)"/>
<path d="" fill="#FFFFFF" transform="translate(0,0)"/>
<path d="" fill="#FFFFFF" transform="translate(0,0)"/>
<path d="" fill="#FFFFFF" transform="translate(0,0)"/>
<path d="" fill="#FFFFFF" transform="translate(0,0)"/>
<path d="" fill="#FFFFFF" transform="translate(0,0)"/>
<path d="" fill="#FFFFFF" transform="translate(0,0)"/>
<path d="" fill="#FFFFFF" transform="translate(0,0)"/>
<path d="" fill="#FFFFFF" transform="translate(0,0)"/>
<path d="" fill="#FFFFFF" transform="translate(0,0)"/>
<path d="" fill="#FFFFFF" transform="translate(0,0)"/>
<path d="" fill="#FFFFFF" transform="translate(0,0)"/>
<path d="" fill="#FFFFFF" transform="translate(0,0)"/>
<path d="" fill="#FFFFFF" transform="translate(0,0)"/>
<path d="" fill="#FFFFFF" transform="translate(0,0)"/>
<path d="" fill="#FFFFFF" transform="translate(0,0)"/>
<path d="" fill="#FFFFFF" transform="translate(0,0)"/>
<path d="" fill="#FFFFFF" transform="translate(0,0)"/>
<path d="" fill="#FFFFFF" transform="translate(0,0)"/>
<path d="" fill="#FFFFFF" transform="translate(0,0)"/>
<path d="" fill="#FFFFFF" transform="translate(0,0)"/>
<path d="" fill="#FFFFFF" transform="translate(0,0)"/>
<path d="" fill="#FFFFFF" transform="translate(0,0)"/>
<path d="" fill="#FFFFFF" transform="translate(0,0)"/>
<path d="" fill="#FFFFFF" transform="translate(0,0)"/>
<path d="" fill="#FFFFFF" transform="translate(0,0)"/>
<path d="" fill="#FFFFFF" transform="translate(0,0)"/>
<path d="" fill="#FFFFFF" transform="translate(0,0)"/>
<path d="" fill="#FFFFFF" transform="translate(0,0)"/>
<path d="" fill="#FFFFFF" transform="translate(0,0)"/>
<path d="" fill="#FFFFFF" transform="translate(0,0)"/>
<path d="" fill="#FFFFFF" transform="translate(0,0)"/>
<path d="" fill="#FFFFFF" transform="translate(0,0)"/>
<path d="" fill="#FFFFFF" transform="translate(0,0)"/>
<path d="" fill="#FFFFFF" transform="translate(0,0)"/>
<path d="" fill="#FFFFFF" transform="translate(0,0)"/>
<path d="" fill="#FFFFFF" transform="translate(0,0)"/>
<path d="" fill="#FFFFFF" transform="translate(0,0)"/>
<path d="" fill="#FFFFFF" transform="translate(0,0)"/>
<path d="" fill="#FFFFFF" transform="translate(0,0)"/>
<path d="" fill="#FFFFFF" transform="translate(0,0)"/>
<path d="" fill="#FFFFFF" transform="translate(0,0)"/>
<path d="" fill="#FFFFFF" transform="translate(0,0)"/>
<path d="" fill="#FFFFFF" transform="translate(0,0)"/>
<path d="" fill="#FFFFFF" transform="translate(0,0)"/>
<path d="" fill="#FFFFFF" transform="translate(0,0)"/>
<path d="" fill="#FFFFFF" transform="translate(0,0)"/>
<path d="" fill="#FFFFFF" transform="translate(0,0)"/>
<path d="" fill="#FFFFFF" transform="translate(0,0)"/>
<path d="" fill="#FFFFFF" transform="translate(0,0)"/>
<path d="" fill="#FFFFFF" transform="translate(0,0)"/>
<path d="" fill="#FFFFFF" transform="translate(0,0)"/>
<path d="" fill="#FFFFFF" transform="translate(0,0)"/>
<path d="" fill="#FFFFFF" transform="translate(0,0)"/>
<path d="" fill="#FFFFFF" transform="translate(0,0)"/>
<path d="" fill="#FFFFFF" transform="translate(0,0)"/>
<path d="" fill="#FFFFFF" transform="translate(0,0)"/>
<path d="" fill="#FFFFFF" transform="translate(0,0)"/>
<path d="" fill="#FFFFFF" transform="translate(0,0)"/>
<path d="" fill="#FFFFFF" transform="translate(0,0)"/>
<path d="" fill="#FFFFFF" transform="translate(0,0)"/>
<path d="" fill="#FFFFFF" transform="translate(0,0)"/>
<path d="" fill="#FFFFFF" transform="translate(0,0)"/>
<path d="" fill="#FFFFFF" transform="translate(0,0)"/>
<path d="" fill="#FFFFFF" transform="translate(0,0)"/>
<path d="" fill="#FFFFFF" transform="translate(0,0)"/>
<path d="" fill="#FFFFFF" transform="translate(0,0)"/>
<path d="" fill="#FFFFFF" transform="translate(0,0)"/>
<path d="" fill="#FFFFFF" transform="translate(0,0)"/>
<path d="" fill="#FFFFFF" transform="translate(0,0)"/>
<path d="" fill="#FFFFFF" transform="translate(0,0)"/>
<path d="" fill="#FFFFFF" transform="translate(0,0)"/>
<path d="" fill="#FFFFFF" transform="translate(0,0)"/>
<path d="" fill="#FFFFFF" transform="translate(0,0)"/>
<path d="" fill="#FFFFFF" transform="translate(0,0)"/>
<path d="" fill="#FFFFFF" transform="translate(0,0)"/>
<path d="" fill="#FFFFFF" transform="translate(0,0)"/>
<path d="" fill="#FFFFFF" transform="translate(0,0)"/>
<path d="" fill="#FFFFFF" transform="translate(0,0)"/>
<path d="" fill="#FFFFFF" transform="translate(0,0)"/>
<path d="" fill="#FFFFFF" transform="translate(0,0)"/>
<path d="" fill="#FFFFFF" transform="translate(0,0)"/>
<path d="" fill="#FFFFFF" transform="translate(0,0)"/>
<path d="" fill="#FFFFFF" transform="translate(0,0)"/>
<path d="" fill="#FFFFFF" transform="translate(0,0)"/>
<path d="" fill="#FFFFFF" transform="translate(0,0)"/>
<path d="" fill="#FFFFFF" transform="translate(0,0)"/>
<path d="" fill="#FFFFFF" transform="translate(0,0)"/>
<path d="" fill="#FFFFFF" transform="translate(0,0)"/>
<path d="" fill="#FFFFFF" transform="translate(0,0)"/>
<path d="" fill="#FFFFFF" transform="translate(0,0)"/>
<path d="" fill="#FFFFFF" transform="translate(0,0)"/>
<path d="" fill="#FFFFFF" transform="translate(0,0)"/>
<path d="" fill="#FFFFFF" transform="translate(0,0)"/>
<path d="" fill="#FFFFFF" transform="translate(0,0)"/>
<path d="" fill="#FFFFFF" transform="translate(0,0)"/>
<path d="" fill="#FFFFFF" transform="translate(0,0)"/>
<path d="" fill="#FFFFFF" transform="translate(0,0)"/>
<path d="" fill="#FFFFFF" transform="translate(0,0)"/>
<path d="" fill="#FFFFFF" transform="translate(0,0)"/>
<path d="" fill="#FFFFFF" transform="translate(0,0)"/>
<path d="" fill="#FFFFFF" transform="translate(0,0)"/>
<path d="" fill="#FFFFFF" transform="translate(0,0)"/>
<path d="" fill="#FFFFFF" transform="translate(0,0)"/>
<path d="" fill="#FFFFFF" transform="translate(0,0)"/>
<path d="" fill="#FFFFFF" transform="translate(0,0)"/>
<path d="" fill="#FFFFFF" transform="translate(0,0)"/>
<path d="" fill="#FFFFFF" transform="translate(0,0)"/>
<path d="" fill="#FFFFFF" transform="translate(0,0)"/>
<path d="" fill="#FFFFFF" transform="translate(0,0)"/>
<path d="" fill="#FFFFFF" transform="translate(0,0)"/>
<path d="" fill="#FFFFFF" transform="translate(0,0)"/>
<path d="" fill="#FFFFFF" transform="translate(0,0)"/>
<path d="" fill="#FFFFFF" transform="translate(0,0)"/>
<path d="" fill="#FFFFFF" transform="translate(0,0)"/>
<path d="" fill="#FFFFFF" transform="translate(0,0)"/>
<path d="" fill="#FFFFFF" transform="translate(0,0)"/>
<path d="" fill="#FFFFFF" transform="translate(0,0)"/>
<path d="" fill="#FFFFFF" transform="translate(0,0)"/>
<path d="" fill="#FFFFFF" transform="translate(0,0)"/>
<path d="" fill="#FFFFFF" transform="translate(0,0)"/>
<path d="" fill="#FFFFFF" transform="translate(0,0)"/>
<path d="" fill="#FFFFFF" transform="translate(0,0)"/>
<path d="" fill="#FFFFFF" transform="translate(0,0)"/>
<path d="" fill="#FFFFFF" transform="translate(0,0)"/>
<path d="" fill="#FFFFFF" transform="translate(0,0)"/>
<path d="" fill="#FFFFFF" transform="translate(0,0)"/>
<path d="" fill="#FFFFFF" transform="translate(0,0)"/>
<path d="" fill="#FFFFFF" transform="translate(0,0)"/>
<path d="" fill="#FFFFFF" transform="translate(0,0)"/>
<path d="" fill="#FFFFFF" transform="translate(0,0)"/>
<path d="" fill="#FFFFFF" transform="translate(0,0)"/>
<path d="" fill="#FFFFFF" transform="translate(0,0)"/>
<path d="" fill="#FFFFFF" transform="translate(0,0)"/>
<path d="" fill="#FFFFFF" transform="translate(0,0)"/>
<path d="" fill="#FFFFFF" transform="translate(0,0)"/>
<path d="" fill="#FFFFFF" transform="translate(0,0)"/>
<path d="" fill="#FFFFFF" transform="translate(0,0)"/>
<path d="" fill="#FFFFFF" transform="translate(0,0)"/>
<path d="" fill="#FFFFFF" transform="translate(0,0)"/>
<path d="" fill="#FFFFFF" transform="translate(0,0)"/>
<path d="" fill="#FFFFFF" transform="translate(0,0)"/>
<path d="" fill="#FFFFFF" transform="translate(0,0)"/>
<path d="" fill="#FFFFFF" transform="translate(0,0)"/>
<path d="" fill="#FFFFFF" transform="translate(0,0)"/>
<path d="" fill="#FFFFFF" transform="translate(0,0)"/>
<path d="" fill="#FFFFFF" transform="translate(0,0)"/>
<path d="" fill="#FFFFFF" transform="translate(0,0)"/>
<path d="" fill="#FFFFFF" transform="translate(0,0)"/>
<path d="" fill="#FFFFFF" transform="translate(0,0)"/>
<path d="" fill="#FFFFFF" transform="translate(0,0)"/>
<path d="" fill="#FFFFFF" transform="translate(0,0)"/>
<path d="" fill="#FFFFFF" transform="translate(0,0)"/>
<path d="" fill="#FFFFFF" transform="translate(0,0)"/>
<path d="" fill="#FFFFFF" transform="translate(0,0)"/>
<path d="" fill="#FFFFFF" transform="translate(0,0)"/>
<path d="" fill="#FFFFFF" transform="translate(0,0)"/>
<path d="" fill="#FFFFFF" transform="translate(0,0)"/>
<path d="" fill="#FFFFFF" transform="translate(0,0)"/>
<path d="" fill="#FFFFFF" transform="translate(0,0)"/>
<path d="" fill="#FFFFFF" transform="translate(0,0)"/>
<path d="" fill="#FFFFFF" transform="translate(0,0)"/>
<path d="" fill="#FFFFFF" transform="translate(0,0)"/>
<path d="" fill="#FFFFFF" transform="translate(0,0)"/>
<path d="" fill="#FFFFFF" transform="translate(0,0)"/>
<path d="" fill="#FFFFFF" transform="translate(0,0)"/>
<path d="" fill="#FFFFFF" transform="translate(0,0)"/>
<path d="" fill="#FFFFFF" transform="translate(0,0)"/>
<path d="" fill="#FFFFFF" transform="translate(0,0)"/>
<path d="" fill="#FFFFFF" transform="translate(0,0)"/>
<path d="" fill="#FFFFFF" transform="translate(0,0)"/>
<path d="" fill="#FFFFFF" transform="translate(0,0)"/>
<path d="" fill="#FFFFFF" transform="translate(0,0)"/>
<path d="" fill="#FFFFFF" transform="translate(0,0)"/>
<path d="" fill="#FFFFFF" transform="translate(0,0)"/>
<path d="" fill="#FFFFFF" transform="translate(0,0)"/>
<path d="" fill="#FFFFFF" transform="translate(0,0)"/>
<path d="" fill="#FFFFFF" transform="translate(0,0)"/>
<path d="" fill="#FFFFFF" transform="translate(0,0)"/>
<path d="" fill="#FFFFFF" transform="translate(0,0)"/>
<path d="" fill="#FFFFFF" transform="translate(0,0)"/>
<path d="" fill="#FFFFFF" transform="translate(0,0)"/>
<path d="" fill="#FFFFFF" transform="translate(0,0)"/>
<path d="" fill="#FFFFFF" transform="translate(0,0)"/>
<path d="" fill="#FFFFFF" transform="translate(0,0)"/>
<path d="" fill="#FFFFFF" transform="translate(0,0)"/>
<path d="" fill="#FFFFFF" transform="translate(0,0)"/>
<path d="" fill="#FFFFFF" transform="translate(0,0)"/>
<path d="" fill="#FFFFFF" transform="translate(0,0)"/>
<path d="" fill="#FFFFFF" transform="translate(0,0)"/>
<path d="" fill="#FFFFFF" transform="translate(0,0)"/>
<path d="" fill="#FFFFFF" transform="translate(0,0)"/>
<path d="" fill="#FFFFFF" transform="translate(0,0)"/>
<path d="" fill="#FFFFFF" transform="translate(0,0)"/>
<path d="" fill="#FFFFFF" transform="translate(0,0)"/>
<path d="" fill="#FFFFFF" transform="translate(0,0)"/>
<path d="" fill="#FFFFFF" transform="translate(0,0)"/>
<path d="" fill="#FFFFFF" transform="translate(0,0)"/>
<path d="" fill="#FFFFFF" transform="translate(0,0)"/>
<path d="" fill="#FFFFFF" transform="translate(0,0)"/>
<path d="" fill="#FFFFFF" transform="translate(0,0)"/>
<path d="" fill="#FFFFFF" transform="translate(0,0)"/>
<path d="" fill="#FFFFFF" transform="translate(0,0)"/>
<path d="" fill="#FFFFFF" transform="translate(0,0)"/>
<path d="" fill="#FFFFFF" transform="translate(0,0)"/>
<path d="" fill="#FFFFFF" transform="translate(0,0)"/>
<path d="" fill="#FFFFFF" transform="translate(0,0)"/>
<path d="" fill="#FFFFFF" transform="translate(0,0)"/>
<path d="" fill="#FFFFFF" transform="translate(0,0)"/>
<path d="" fill="#FFFFFF" transform="translate(0,0)"/>
<path d="" fill="#FFFFFF" transform="translate(0,0)"/>
<path d="" fill="#FFFFFF" transform="translate(0,0)"/>
<path d="" fill="#FFFFFF" transform="translate(0,0)"/>
<path d="" fill="#FFFFFF" transform="translate(0,0)"/>
<path d="" fill="#FFFFFF" transform="translate(0,0)"/>
<path d="" fill="#FFFFFF" transform="translate(0,0)"/>
<path d="" fill="#FFFFFF" transform="translate(0,0)"/>
<path d="" fill="#FFFFFF" transform="translate(0,0)"/>
<path d="" fill="#FFFFFF" transform="translate(0,0)"/>
<path d="" fill="#FFFFFF" transform="translate(0,0)"/>
<path d="" fill="#FFFFFF" transform="translate(0,0)"/>
<path d="" fill="#FFFFFF" transform="translate(0,0)"/>
<path d="" fill="#FFFFFF" transform="translate(0,0)"/>
<path d="" fill="#FFFFFF" transform="translate(0,0)"/>
<path d="" fill="#FFFFFF" transform="translate(0,0)"/>
<path d="" fill="#FFFFFF" transform="translate(0,0)"/>
<path d="" fill="#FFFFFF" transform="translate(0,0)"/>
<path d="" fill="#FFFFFF" transform="translate(0,0)"/>
<path d="" fill="#FFFFFF" transform="translate(0,0)"/>
<path d="" fill="#FFFFFF" transform="translate(0,0)"/>
<path d="" fill="#FFFFFF" transform="translate(0,0)"/>
<path d="" fill="#FFFFFF" transform="translate(0,0)"/>
<path d="" fill="#FFFFFF" transform="translate(0,0)"/>
<path d="" fill="#FFFFFF" transform="translate(0,0)"/>
<path d="" fill="#FFFFFF" transform="translate(0,0)"/>
<path d="" fill="#FFFFFF" transform="translate(0,0)"/>
<path d="" fill="#FFFFFF" transform="translate(0,0)"/>
<path d="" fill="#FFFFFF" transform="translate(0,0)"/>
<path d="" fill="#FFFFFF" transform="translate(0,0)"/>
<path d="" fill="#FFFFFF" transform="translate(0,0)"/>
<path d="" fill="#FFFFFF" transform="translate(0,0)"/>
<path d="" fill="#FFFFFF" transform="translate(0,0)"/>
<path d="" fill="#FFFFFF" transform="translate(0,0)"/>
<path d="" fill="#FFFFFF" transform="translate(0,0)"/>
<path d="" fill="#FFFFFF" transform="translate(0,0)"/>
<path d="" fill="#FFFFFF" transform="translate(0,0)"/>
<path d="" fill="#FFFFFF" transform="translate(0,0)"/>
<path d="" fill="#FFFFFF" transform="translate(0,0)"/>
<path d="" fill="#FFFFFF" transform="translate(0,0)"/>
<path d="" fill="#FFFFFF" transform="translate(0,0)"/>
<path d="" fill="#FFFFFF" transform="translate(0,0)"/>
<path d="" fill="#FFFFFF" transform="translate(0,0)"/>
<path d="" fill="#FFFFFF" transform="translate(0,0)"/>
<path d="" fill="#FFFFFF" transform="translate(0,0)"/>
<path d="" fill="#FFFFFF" transform="translate(0,0)"/>
<path d="" fill="#FFFFFF" transform="translate(0,0)"/>
<path d="" fill="#FFFFFF" transform="translate(0,0)"/>
<path d="" fill="#FFFFFF" transform="translate(0,0)"/>
<path d="" fill="#FFFFFF" transform="translate(0,0)"/>
<path d="" fill="#FFFFFF" transform="translate(0,0)"/>
<path d="" fill="#FFFFFF" transform="translate(0,0)"/>
<path d="" fill="#FFFFFF" transform="translate(0,0)"/>
<path d="" fill="#FFFFFF" transform="translate(0,0)"/>
<path d="" fill="#FFFFFF" transform="translate(0,0)"/>
<path d="" fill="#FFFFFF" transform="translate(0,0)"/>
<path d="" fill="#FFFFFF" transform="translate(0,0)"/>
<path d="" fill="#FFFFFF" transform="translate(0,0)"/>
<path d="" fill="#FFFFFF" transform="translate(0,0)"/>
<path d="" fill="#FFFFFF" transform="translate(0,0)"/>
<path d="" fill="#FFFFFF" transform="translate(0,0)"/>
<path d="" fill="#FFFFFF" transform="translate(0,0)"/>
<path d="" fill="#FFFFFF" transform="translate(0,0)"/>
<path d="" fill="#FFFFFF" transform="translate(0,0)"/>
<path d="" fill="#FFFFFF" transform="translate(0,0)"/>
<path d="" fill="#FFFFFF" transform="translate(0,0)"/>
<path d="" fill="#FFFFFF" transform="translate(0,0)"/>
<path d="" fill="#FFFFFF" transform="translate(0,0)"/>
<path d="" fill="#FFFFFF" transform="translate(0,0)"/>
<path d="" fill="#FFFFFF" transform="translate(0,0)"/>
<path d="" fill="#FFFFFF" transform="translate(0,0)"/>
<path d="" fill="#FFFFFF" transform="translate(0,0)"/>
<path d="" fill="#FFFFFF" transform="translate(0,0)"/>
<path d="" fill="#FFFFFF" transform="translate(0,0)"/>
<path d="" fill="#FFFFFF" transform="translate(0,0)"/>
<path d="" fill="#FFFFFF" transform="translate(0,0)"/>
<path d="" fill="#FFFFFF" transform="translate(0,0)"/>
<path d="" fill="#FFFFFF" transform="translate(0,0)"/>
<path d="" fill="#FFFFFF" transform="translate(0,0)"/>
<path d="" fill="#FFFFFF" transform="translate(0,0)"/>
<path d="" fill="#FFFFFF" transform="translate(0,0)"/>
<path d="" fill="#FFFFFF" transform="translate(0,0)"/>
<path d="" fill="#FFFFFF" transform="translate(0,0)"/>
<path d="" fill="#FFFFFF" transform="translate(0,0)"/>
<path d="" fill="#FFFFFF" transform="translate(0,0)"/>
<path d="" fill="#FFFFFF" transform="translate(0,0)"/>
<path d="" fill="#FFFFFF" transform="translate(0,0)"/>
<path d="" fill="#FFFFFF" transform="translate(0,0)"/>
<path d="" fill="#FFFFFF" transform="translate(0,0)"/>
<path d="" fill="#FFFFFF" transform="translate(0,0)"/>
<path d="" fill="#FFFFFF" transform="translate(0,0)"/>
<path d="" fill="#FFFFFF" transform="translate(0,0)"/>
<path d="" fill="#FFFFFF" transform="translate(0,0)"/>
<path d="" fill="#FFFFFF" transform="translate(0,0)"/>
<path d="" fill="#FFFFFF" transform="translate(0,0)"/>
<path d="" fill="#FFFFFF" transform="translate(0,0)"/>
<path d="" fill="#FFFFFF" transform="translate(0,0)"/>
<path d="" fill="#FFFFFF" transform="translate(0,0)"/>
<path d="" fill="#FFFFFF" transform="translate(0,0)"/>
<path d="" fill="#FFFFFF" transform="translate(0,0)"/>
<path d="" fill="#FFFFFF" transform="translate(0,0)"/>
<path d="" fill="#FFFFFF" transform="translate(0,0)"/>
<path d="" fill="#FFFFFF" transform="translate(0,0)"/>
<path d="" fill="#FFFFFF" transform="translate(0,0)"/>
<path d="" fill="#FFFFFF" transform="translate(0,0)"/>
<path d="" fill="#FFFFFF" transform="translate(0,0)"/>
<path d="" fill="#FFFFFF" transform="translate(0,0)"/>
<path d="" fill="#FFFFFF" transform="translate(0,0)"/>
<path d="" fill="#FFFFFF" transform="translate(0,0)"/>
<path d="" fill="#FFFFFF" transform="translate(0,0)"/>
<path d="" fill="#FFFFFF" transform="translate(0,0)"/>
<path d="" fill="#FFFFFF" transform="translate(0,0)"/>
<path d="" fill="#FFFFFF" transform="translate(0,0)"/>
<path d="" fill="#FFFFFF" transform="translate(0,0)"/>
<path d="" fill="#FFFFFF" transform="translate(0,0)"/>
<path d="" fill="#FFFFFF" transform="translate(0,0)"/>
<path d="" fill="#FFFFFF" transform="translate(0,0)"/>
<path d="" fill="#FFFFFF" transform="translate(0,0)"/>
<path d="" fill="#FFFFFF" transform="translate(0,0)"/>
<path d="" fill="#FFFFFF" transform="translate(0,0)"/>
<path d="" fill="#FFFFFF" transform="translate(0,0)"/>
<path d="" fill="#FFFFFF" transform="translate(0,0)"/>
<path d="" fill="#FFFFFF" transform="translate(0,0)"/>
<path d="" fill="#FFFFFF" transform="translate(0,0)"/>
<path d="" fill="#FFFFFF" transform="translate(0,0)"/>
<path d="" fill="#FFFFFF" transform="translate(0,0)"/>
<path d="" fill="#FFFFFF" transform="translate(0,0)"/>
<path d="" fill="#FFFFFF" transform="translate(0,0)"/>
<path d="" fill="#FFFFFF" transform="translate(0,0)"/>
<path d="" fill="#FFFFFF" transform="translate(0,0)"/>
<path d="" fill="#FFFFFF" transform="translate(0,0)"/>
<path d="" fill="#FFFFFF" transform="translate(0,0)"/>
<path d="" fill="#FFFFFF" transform="translate(0,0)"/>
<path d="" fill="#FFFFFF" transform="translate(0,0)"/>
<path d="" fill="#FFFFFF" transform="translate(0,0)"/>
<path d="" fill="#FFFFFF" transform="translate(0,0)"/>
<path d="" fill="#FFFFFF" transform="translate(0,0)"/>
<path d="" fill="#FFFFFF" transform="translate(0,0)"/>
<path d="" fill="#FFFFFF" transform="translate(0,0)"/>
<path d="" fill="#FFFFFF" transform="translate(0,0)"/>
<path d="" fill="#FFFFFF" transform="translate(0,0)"/>
<path d="" fill="#FFFFFF" transform="translate(0,0)"/>
<path d="" fill="#FFFFFF" transform="translate(0,0)"/>
<path d="" fill="#FFFFFF" transform="translate(0,0)"/>
<path d="" fill="#FFFFFF" transform="translate(0,0)"/>
<path d="" fill="#FFFFFF" transform="translate(0,0)"/>
<path d="" fill="#FFFFFF" transform="translate(0,0)"/>
<path d="" fill="#FFFFFF" transform="translate(0,0)"/>
<path d="" fill="#FFFFFF" transform="translate(0,0)"/>
<path d="" fill="#FFFFFF" transform="translate(0,0)"/>
<path d="" fill="#FFFFFF" transform="translate(0,0)"/>
<path d="" fill="#FFFFFF" transform="translate(0,0)"/>
<path d="" fill="#FFFFFF" transform="translate(0,0)"/>
<path d="" fill="#FFFFFF" transform="translate(0,0)"/>
<path d="" fill="#FFFFFF" transform="translate(0,0)"/>
<path d="" fill="#FFFFFF" transform="translate(0,0)"/>
<path d="" fill="#FFFFFF" transform="translate(0,0)"/>
<path d="" fill="#FFFFFF" transform="translate(0,0)"/>
<path d="" fill="#FFFFFF" transform="translate(0,0)"/>
<path d="" fill="#FFFFFF" transform="translate(0,0)"/>
<path d="" fill="#FFFFFF" transform="translate(0,0)"/>
<path d="" fill="#FFFFFF" transform="translate(0,0)"/>
<path d="" fill="#FFFFFF" transform="translate(0,0)"/>
<path d="" fill="#FFFFFF" transform="translate(0,0)"/>
<path d="" fill="#FFFFFF" transform="translate(0,0)"/>
<path d="" fill="#FFFFFF" transform="translate(0,0)"/>
<path d="" fill="#FFFFFF" transform="translate(0,0)"/>
<path d="" fill="#FFFFFF" transform="translate(0,0)"/>
<path d="" fill="#FFFFFF" transform="translate(0,0)"/>
<path d="" fill="#FFFFFF" transform="translate(0,0)"/>
<path d="" fill="#FFFFFF" transform="translate(0,0)"/>
<path d="" fill="#FFFFFF" transform="translate(0,0)"/>
<path d="" fill="#FFFFFF" transform="translate(0,0)"/>
<path d="" fill="#FFFFFF" transform="translate(0,0)"/>
<path d="" fill="#FFFFFF" transform="translate(0,0)"/>
<path d="" fill="#FFFFFF" transform="translate(0,0)"/>
<path d="" fill="#FFFFFF" transform="translate(0,0)"/>
<path d="" fill="#FFFFFF" transform="translate(0,0)"/>
<path d="" fill="#FFFFFF" transform="translate(0,0)"/>
<path d="" fill="#FFFFFF" transform="translate(0,0)"/>
<path d="" fill="#FFFFFF" transform="translate(0,0)"/>
<path d="" fill="#FFFFFF" transform="translate(0,0)"/>
<path d="" fill="#FFFFFF" transform="translate(0,0)"/>
<path d="" fill="#FFFFFF" transform="translate(0,0)"/>
<path d="" fill="#FFFFFF" transform="translate(0,0)"/>
<path d="" fill="#FFFFFF" transform="translate(0,0)"/>
<path d="" fill="#FFFFFF" transform="translate(0,0)"/>
<path d="" fill="#FFFFFF" transform="translate(0,0)"/>
<path d="" fill="#FFFFFF" transform="translate(0,0)"/>
<path d="" fill="#FFFFFF" transform="translate(0,0)"/>
<path d="" fill="#FFFFFF" transform="translate(0,0)"/>
<path d="" fill="#FFFFFF" transform="translate(0,0)"/>
<path d="" fill="#FFFFFF" transform="translate(0,0)"/>
<path d="" fill="#FFFFFF" transform="translate(0,0)"/>
<path d="" fill="#FFFFFF" transform="translate(0,0)"/>
<path d="" fill="#FFFFFF" transform="translate(0,0)"/>
<path d="" fill="#FFFFFF" transform="translate(0,0)"/>
<path d="" fill="#FFFFFF" transform="translate(0,0)"/>
<path d="" fill="#FFFFFF" transform="translate(0,0)"/>
<path d="" fill="#FFFFFF" transform="translate(0,0)"/>
<path d="" fill="#FFFFFF" transform="translate(0,0)"/>
<path d="" fill="#FFFFFF" transform="translate(0,0)"/>
<path d="" fill="#FFFFFF" transform="translate(0,0)"/>
<path d="" fill="#FFFFFF" transform="translate(0,0)"/>
<path d="" fill="#FFFFFF" transform="translate(0,0)"/>
<path d="" fill="#FFFFFF" transform="translate(0,0)"/>
<path d="" fill="#FFFFFF" transform="translate(0,0)"/>
<path d="" fill="#FFFFFF" transform="translate(0,0)"/>
<path d="" fill="#FFFFFF" transform="translate(0,0)"/>
<path d="" fill="#FFFFFF" transform="translate(0,0)"/>
<path d="" fill="#FFFFFF" transform="translate(0,0)"/>
<path d="" fill="#FFFFFF" transform="translate(0,0)"/>
<path d="" fill="#FFFFFF" transform="translate(0,0)"/>
<path d="" fill="#FFFFFF" transform="translate(0,0)"/>
<path d="" fill="#FFFFFF" transform="translate(0,0)"/>
<path d="" fill="#FFFFFF" transform="translate(0,0)"/>
<path d="" fill="#FFFFFF" transform="translate(0,0)"/>
<path d="" fill="#FFFFFF" transform="translate(0,0)"/>
<path d="" fill="#FFFFFF" transform="translate(0,0)"/>
<path d="" fill="#FFFFFF" transform="translate(0,0)"/>
<path d="" fill="#FFFFFF" transform="translate(0,0)"/>
<path d="" fill="#FFFFFF" transform="translate(0,0)"/>
<path d="" fill="#FFFFFF" transform="translate(0,0)"/>
<path d="" fill="#FFFFFF" transform="translate(0,0)"/>
<path d="" fill="#FFFFFF" transform="translate(0,0)"/>
<path d="" fill="#FFFFFF" transform="translate(0,0)"/>
<path d="" fill="#FFFFFF" transform="translate(0,0)"/>
<path d="" fill="#FFFFFF" transform="translate(0,0)"/>
<path d="" fill="#FFFFFF" transform="translate(0,0)"/>
<path d="" fill="#FFFFFF" transform="translate(0,0)"/>
<path d="" fill="#FFFFFF" transform="translate(0,0)"/>
<path d="" fill="#FFFFFF" transform="translate(0,0)"/>
</svg>
