<svg xmlns="http://www.w3.org/2000/svg" width="546" height="498"><path fill="#F9F9F9" d="M310.085 11.725c2.946.337 2.946.337 6.039.191 3.006.088 4.306.64 6.876 2.084q2.282.658 4.598 1.184l2.664.618 2.8.635c6.749 1.559 13.443 3.17 20.075 5.18 1.944.6 1.944.6 3.863-.617v3l2.157.364c2.966.663 5.537 1.634 8.335 2.816l3.137 1.316 3.246 1.379 3.223 1.355q3.087 1.3 6.17 2.611 2.45 1.04 4.909 2.056c3.18 1.319 6.018 2.73 8.823 4.728 3.313 2.287 6.687 4.382 10.17 6.4C421.54 55.382 442.34 67.678 450 83c.236 6.382.236 6.382-.813 9.125L449 94c2.396 2.646 2.396 2.646 5 5v2h2a118 118 0 0 1 5 6.125l1.484 1.925A928 928 0 0 1 467 115l1.316 1.731C494.144 150.888 508.98 192.507 513 235l.336 3.207c.514 5.75.677 11.352.547 17.121l-.061 3.416a339 339 0 0 1-.21 6.814l-.065 3.172-.099 2.857c.324 2.64.324 2.64 2.89 4.099L519 277c11.861 8.903 16.283 22.968 18.308 37.159 2.001 16.416.47 32.612-2.308 48.841l-.478 2.835-.499 2.75-.447 2.495L533 373l-2 1-1 5c-6.506 15.217-15.304 27.083-30.781 34.187-8.036 2.943-16.782 5.295-25.219 2.813-2.757-1.412-3.894-2.57-6-5-1.136-4.518-.939-8.476-.443-13.083l.217-2.077c.238-2.265.488-4.529.738-6.793l.51-4.812q.54-5.1 1.094-10.198c.575-5.302 1.135-10.605 1.693-15.91 1.31-12.447 2.626-24.894 3.967-37.338 2.439-22.695 3.838-44.951 3.224-67.789h1c-1.457-32.717-8.575-64.691-25.026-93.28-1.363-2.407-2.592-4.88-3.849-7.345C445.323 141.842 433.811 122.089 422 118l-3.75.187c-4.924.158-8.597-1.981-12.25-5.187v-2l-1.793-.813c-2.226-1.197-3.7-2.446-5.52-4.187-7.592-6.775-25.32-22-35.687-22v-2l-3.563-1.125c-5.113-1.688-10.073-3.711-15.031-5.805-3.793-1.564-7.336-2.557-11.406-3.07v-2l-1.85-.367c-4.316-.86-8.63-1.73-12.94-2.633-44.852-9.35-90.217-6.102-132.21 13l-2.173.988c-17.633 8.156-34.725 19.16-48.765 32.637-3.932 3.616-7.694 5.228-13.062 5.375l-2.543-.656c-2.452-.606-2.452-.606-4.273.746-24.419 25.839-40.31 59.178-47.997 93.66l-.59 2.646c-2.975 14.248-3.979 28.46-3.91 42.979l.005 2.394c.056 16.762 1.353 33.316 3.077 49.979.313 3.05.613 6.103.914 9.155 1.46 14.79 3.027 29.567 4.684 44.335l.696 6.245q.67 6.001 1.362 12c2.613 23.03 2.613 23.03 1.575 28.517-3.425 4.16-7.017 5.339-12 7-17.103-1.734-31.318-9.367-42.25-22.75-16.555-23.663-19.314-60.229-14.504-88.113C9.356 294.197 15.014 282.87 26 275l3-1c-.01-.56-.02-1.121-.032-1.699-.206-12.914.188-25.648 1.32-38.517.494-5.625.82-11.138.712-16.784h2l.043-1.738c.423-7.538 2.186-14.48 4.23-21.71l.668-2.392.616-2.136c.586-2.33.586-2.33.443-6.024h2l.625-3.625c1.48-6.805 4.518-13.06 7.375-19.375l-2-1 2-2c2.29-2.815 3.812-5.58 5.312-8.875C61.048 134.4 69.803 119.458 80 108h2l.875-1.813C84 104 84 104 86 101h2l.812-1.75C90 97 90 97 91.687 95c1.536-1.907 1.536-1.907 1.188-4.188L92 89l-3-1 2-1 .687-2.563c9.379-24.561 50.653-42.943 72.754-53.027 18.17-8.019 36.851-13.357 56.158-17.797 2.393-.52 2.393-.52 4.401-1.613a79 79 0 0 1 4.148-.5l2.551-.25 2.676-.25 2.559-.25c2.688-.26 5.377-.506 8.066-.75l2.904-.276c20.885-1.894 41.422-.578 62.181 2M480 268l1 3Z"/><path fill="#F6F6F6" d="M307 80c11.781 7.854 15.718 20.903 19 34l.656 2.555c6.346 27.714.726 58.515-14.148 82.582-2.385 3.708-4.907 7.304-7.508 10.863l-2.121 2.93c-3.337 4.454-3.337 4.454-4.879 6.07h-2v2h-2l-.785 1.86c-1.349 2.375-2.309 3.06-4.649 4.39C284.1 230.192 280.22 233 278 238c-.474 8.444 2.058 16.751 4.223 24.842 1 4.061 1.45 7.993 1.777 12.158h2l-1-4 2 1v2l3.191-.105c22.607-.52 40.576 5.542 57.45 20.761 10.25 10.183 16.974 24.773 17.42 39.35-.058 17.763-6.212 34.19-18.932 46.857C336.375 389.715 321.846 401 308 401l.443 2.276q.999 5.142 1.995 10.286l.697 3.58c3.49 18.055 5.5 35.795-4.37 52.3-7.65 11.087-19.538 18.209-32.65 21.172-17.52 3.202-33.854.967-48.928-8.9-4.447-3.485-9.625-7.59-12.187-12.714l-3-2c-1.612-1.612-1.587-3.608-2-5.812-.684-3.643-.684-3.643-1.555-7.243-1.338-5.845-.439-12.107.555-17.945h2l.688-2.625c3.093-7.955 8.88-11.693 16.312-15.375 9.344-3.759 19.841-2.748 29 1 5.793 3.12 10.136 7.628 13.313 13.375 2.281 8.712 1.906 15.76-2.5 23.79-4.61 6.784-11.476 11.352-18.813 14.835 10.398 4.588 21.473 3.857 32 0 8.36-4.338 14.046-10.346 17.133-19.277.927-3.979 1.25-7.723 1.242-11.786l.004-2.3c-.166-9.351-2.08-18.44-4.012-27.563C293 408 293 408 293 405l-2.08.2c-3.098.293-6.196.578-9.295.863l-3.273.314-3.125.283-2.889.27C270 407 270 407 268 406a90 90 0 0 0-4.191-.543c-16.407-1.938-30.263-6.264-44.856-13.941-2.835-1.543-2.835-1.543-5.531-2.407-3.199-1.465-5.008-3.56-7.422-6.109a206 206 0 0 0-3.05-2.727C195.95 374.081 190.115 367.892 185 360l-1.605-2.277c-11.313-17.013-13.33-38.467-10.97-58.301.666-2.922 1.523-5.615 2.575-8.422l.716-1.958c5.068-13.68 11.953-24.81 21.284-36.042l1.547-1.957c1.104-1.387 2.271-2.722 3.453-4.043h2l.668-1.68c7.896-13.753 27.583-24.356 40.332-33.32l3.105-2.184Q251.55 207.402 255 205l-.621-3.926c-5.405-35.162-4.702-70.784 17.234-100.691C279.99 89.273 291.3 74.766 307 80m-8 34 4 1Zm-6 2.813c-18.126 17.644-22.812 44.495-23.976 68.556-.03 3.331.339 6.366.976 9.631 18.272-13.496 36.001-32.662 40-56 .203-2.696.173-5.286.125-8l-.027-2.059c-.024-1.647-.06-3.294-.098-4.941h-3l2-1c-.35-3.242-.562-4.615-3.062-6.812L304 115l-1 1-3.187-.75c-3.85-.618-3.85-.618-6.813 1.563m-36.75 135.5-1.742 1.365q-1.83 1.436-3.658 2.877a371 371 0 0 1-5.366 4.101c-6.318 4.793-12.23 9.812-17.859 15.406l-1.715 1.699c-2.96 2.636-2.96 2.636-3.91 6.239h-2a91 91 0 0 0-4.312 5.875l-1.222 1.792c-9.999 14.924-14.693 30.551-11.97 48.626 3.604 15.737 13.16 29.299 26.566 38.27C247.1 389.513 269.078 394.603 290 390a2827 2827 0 0 0-8.092-45.078q-.911-4.86-1.816-9.719l-1.166-6.219-.543-2.916-.507-2.686-.441-2.354c-.436-2.215-.436-2.215-1.435-5.028h-3v-5c-3.878.562-6.41 1.654-9.625 3.875l-2.29 1.555c-1.89 1.423-3.545 2.775-5.085 4.57v2h-2q-1.228 2.339-2.437 4.688l-1.372 2.636c-2.957 6.643-3.007 13.03-.441 19.801 3.155 7.241 7.234 11.306 14.25 14.875h2l-1 6c-5.672 1.6-9.815.439-15-2-4.518-2.852-8.233-6.233-12-10h-2l-.84-2.156c-1.54-3.776-3.295-7.44-5.039-11.125-4.348-10.544-2.765-22.118 1.316-32.45 2.326-4.865 5.215-9.059 8.563-13.269l2.25-3c1.75-2 1.75-2 4.75-4v-2l1.668-.785c2.67-1.391 5.129-2.998 7.644-4.652 4.139-2.663 8.091-4.827 12.688-6.563-.582-7.147-1.665-14.095-3.062-21.125l-.565-2.898q-.68-3.49-1.373-6.977c-3.237 0-5.303 2.376-7.75 4.313M290 307l1 7h3l-2 1c.577 8.345 1.869 16.445 3.434 24.656l.72 3.833q.751 3.98 1.511 7.956c.649 3.396 1.286 6.793 1.92 10.192.61 3.257 1.23 6.513 1.849 9.77l.688 3.692.657 3.41.57 3.002c.565 2.714.565 2.714 2.651 5.489 13.244-6.026 20.845-12.58 27.813-25.312 4.31-13.384 1.25-24.514-4.813-36.688h-2l-.75-1.75c-1.433-2.58-3.034-4.311-5.25-6.25h-2v-2c-9.875-4.787-17.918-8.396-29-8m-17 3 2 3v-3z"/><path fill="#FAFBFB" d="M141 246c7.367 7.047 8.428 16.11 9.21 25.843l.283 3.173c.304 3.447.593 6.895.882 10.343q.317 3.644.638 7.287.838 9.6 1.654 19.2c.867 10.154 1.754 20.306 2.638 30.458q.476 5.486.95 10.971c1.168 13.5 2.388 26.988 3.933 40.451C163.31 412.711 163.31 412.711 158 420c-6.839 7.654-15.85 10.198-25.594 12.29L130 433l-1 2h-2l-1-2-1 2-1.72-.45c-2.248-.542-4.485-.959-6.764-1.347l-2.586-.469q-2.654-.48-5.313-.921c-7.548-1.406-14.292-4.205-18.992-10.563l-1.398-1.797c-3.169-6.336-3.632-13.874-4.324-20.84l-.282-2.705a3298 3298 0 0 1-.898-8.81l-.643-6.242q-.674-6.555-1.339-13.11-.836-8.242-1.687-16.482c-1.966-19.082-3.923-38.168-5.675-57.272q-.28-3.022-.57-6.045c-2.45-27.463-2.45-27.463 4.129-38.072C90.842 234.592 124.935 234.548 141 246"/><path fill="#FAFAFA" d="M462 247c4.961 4.5 7.71 10.121 8.374 16.71a151 151 0 0 1-.043 4.107l-.03 2.332c-.25 11.295-1.486 22.538-2.602 33.773q-.36 3.716-.718 7.432-.75 7.752-1.516 15.501a8485 8485 0 0 0-1.916 19.68q-.74 7.665-1.49 15.33-.354 3.623-.705 7.247c-1.137 11.718-2.338 23.426-3.835 35.104l-.326 2.694c-1.098 8.181-3.218 14.167-9.76 19.52-6.675 4.308-14.72 5.849-22.472 7.078-2.18.368-2.18.368-3.961 2.492-2.625-.375-2.625-.375-5-1v-2l-2.422-.262c-11.426-1.462-20.87-4.17-29.055-12.578-3.816-5.41-3.736-10.626-3.324-16.937l.155-2.727c.825-13.6 2.072-27.175 3.257-40.747.618-7.092 1.224-14.184 1.83-21.276l.204-2.38c.908-10.612 1.77-21.226 2.57-31.847l.274-3.633q.621-8.29 1.217-16.584c2.186-29.92 2.186-29.92 9.919-37.654 15.338-12.038 46.105-10.652 61.375.625"/><path fill="#B1B2B2" d="M70 194c1.096 3.29.908 4.212.074 7.465l-.663 2.657-.724 2.815c-4.529 18.314-5.843 35.953-6.25 54.75l-.13 5.631Q62.148 274.158 62 281h-1c-2.96-28.962-.909-59.466 9-87"/><path fill="#A6A7A7" d="M306 467c0 4.948-3.636 7.623-7 11-12.583 11.367-28.798 14.374-45.25 14.196-10.546-.753-20.09-5.421-28.75-11.196 3.409 0 4.857.794 7.875 2.313 15.463 7.133 32.916 7.96 49.125 2.687 10.184-4.32 17.506-10.124 24-19"/><path fill="#ACADAD" d="m90 420 1.469 1.207c12.287 9.712 25.46 9.622 40.531 8.793 6.605-.958 12.138-2.915 18-6l2 1c-6.403 3.584-12.438 5.831-19.629 7.324L130 433l-1 2h-2l-1-2-1 2-1.72-.45c-2.248-.542-4.485-.959-6.764-1.347l-2.586-.469q-2.654-.48-5.313-.921C101.281 430.447 94.997 427.73 90 422z"/><path fill="#BDBDBD" d="m444 426 2 1c-6.03 3.137-11.548 4.625-18.3 5.41-2.958.646-4.353 1.753-6.7 3.59-2.75-.312-2.75-.312-5-1v-2l-6-1v-1l1.83-.028c15.407-.166 15.407-.166 30.123-4.23z"/><path fill="#B3B3B3" d="m103 70 2 1-1.898 1.828-2.477 2.422-2.46 2.39c-2.849 3.106-4.084 5.09-4.353 9.298.171 2.786.55 5.348 1.188 8.062l-7 6c2-4 2-4 3.688-6 1.535-1.907 1.535-1.907 1.187-4.187L92 89l-3-1 2-1 .688-2.562C93.936 78.548 98.569 74.377 103 70"/><path fill="#B4B4B4" d="m227.16 11.902 3.903.036 3.91.027L238 12c-3.035 1.695-5.717 2.446-9.14 3l-2.997.5-3.113.5c-8.179 1.302-8.179 1.302-16.234 3.188-3.35.774-4.408.773-7.516-.188l2.187-.535q4.876-1.197 9.75-2.402l3.444-.842 3.271-.81 3.031-.747c6.105-1.75 6.105-1.75 6.477-1.762"/><path fill="#C2C3C2" d="m60 248 3 2c.249 3.073.249 3.073.074 6.977l-.08 2.076a663 663 0 0 1-.306 6.572q-.096 2.226-.186 4.453C62.351 273.72 62.18 277.36 62 281h-1c-1.125-11.01-1.1-21.944-1-33"/><path fill="#C9C9C9" d="M261 404h30v1c-4.562 1.077-9.087 1.358-13.75 1.625l-2.363.156c-1.96.116-3.924.173-5.887.219l-1-1a236 236 0 0 0-7-1z"/><path fill="#BBBCBB" d="M268 178h1l1 15h5l-6 5c-1-1-1-1-1.114-2.858l.016-2.396.01-2.588.026-2.72.013-2.733q.018-3.353.049-6.705"/><path fill="#CBCCCC" d="m119.383 430.805 2.742.07 2.758.055L127 431l-2 4-1.625-.437c-2.774-.658-5.56-1.115-8.375-1.563 2-2 2-2 4.383-2.195"/><path fill="#E3E3E3" d="M276 308c.8 3.287 1.097 4.71 0 8h-3l-1-3 1-2-3-1c3.75-2 3.75-2 6-2m-3 2 2 3v-3z"/><path fill="#BBBABA" d="M126 54c-1.051 2.866-1.669 3.83-4.437 5.25C119 60 119 60 116 60a617 617 0 0 1 3.875-3l2.18-1.687C124 54 124 54 126 54"/><path fill="#FFF" d="M407 433h9c-3 2-3 2-6.187 1.625L407 434z"/><path fill="#F3F3F3" d="m238 489 7 1-2 2-5-2z"/><path fill="#FEFDFE" d="m335 73 6 1-3 1-2-1-1 2z"/><path fill="#FEFEFE" d="M275 389h8v1h-8zM80 372h1v7c-1.062-1.812-1.062-1.812-2-4z"/><path fill="#FFF" d="M79 359h1v7h-1zM71 277h1v7h-1z"/><path fill="#FEFEFE" d="M105 237h7v1h-7z"/><path fill="#FFF" d="M241 64c2.125.375 2.125.375 4 1l-6 1zM243 413l2 2h-5z"/><path fill="#FDFEFE" d="M472 332h2v5c-2-3.875-2-3.875-2-5"/><path fill="#FDFDFD" d="M28 269h1v5l-2-1z"/><path fill="#FEFEFE" d="m515 255 2 4-2 1z"/><path fill="#FDFDFD" d="M430 237h6v1h-6z"/><path fill="#FEFEFE" d="M239 9h6v1h-6z"/><path fill="#ECEAEB" d="M110 433h5v1h-5z"/><path fill="#FEFEFE" d="M295 431h2l-1 4zM81 383h1v5h-1z"/><path fill="#FFF" d="m305 380 2 3-2 1z"/><path fill="#FCFDFC" d="M72 303h2l-1 4z"/><path fill="#FEFDFE" d="M515 263h1v5h-1z"/><path fill="#FDFDFD" d="M356 81h2v2l-3-1z"/><path fill="#FFF" d="M296 64h5v1h-5zM329 13l3 2-4-1zM131 433l2 1h-3z"/><path fill="#FEFEFE" d="m482 418 4 1Z"/><path fill="#FEFDFE" d="m58 418 4 1Z"/><path fill="#FFF" d="m54 417 4 1Z"/><path fill="#FEFDFE" d="m269 388 1 2-3-1z"/><path fill="#FDFEFD" d="M8 368v3Z"/><path fill="#FFF" d="M283 368h2l-1 3z"/><path fill="#FDFDFD" d="m281 351 1 4Z"/><path fill="#FEFEFE" d="m3 333 1 4Z"/><path fill="#FDFDFD" d="m73 309 1 4Z"/><path fill="#FDFEFE" d="m72 293 1 4Z"/><path fill="#FDFEFD" d="m515 270 1 4Z"/><path fill="#FCFDFD" d="m265 263 1 4Z"/><path fill="#FEFEFE" d="m284 130 2 1-1 2z"/><path fill="#FFF" d="M123 122h3l-1 2z"/><path fill="#FEFDFE" d="m359 82 3 2h-3z"/><path fill="#FDFDFD" d="m299 76 2 1h-3zM327 70l3 2h-3z"/><path fill="#FFF" d="m270 7 4 1Z"/><path fill="#FEFEFE" d="m271 471 3 1Z"/><path fill="#FFF" d="M253 471h2l-1 2z"/><path fill="#FBFDFD" d="m399 431 3 1Z"/><path fill="#FEFEFE" d="M260 420h2l-1 2z"/><path fill="#FDFDFD" d="m321 319 2 2h-2z"/><path fill="#FCFCFC" d="m194 253 2 1-2 1z"/><path fill="#FFF" d="M514 241h2l-1 2z"/><path fill="#FDFDFD" d="m97 238 3 1Z"/><path fill="#FEFEFE" d="m425 237 3 1Z"/><path fill="#FDFDFD" d="m100 236 2 2h-2z"/><path fill="#FEFEFE" d="m75 186 2 1-2 1z"/><path fill="#FCFBFC" d="m281 182 2 1-2 1z"/><path fill="#FDFDFD" d="M451 87h2l-1 2z"/><path fill="#FFF" d="m279 87 3 1Z"/><path fill="#FEFEFE" d="m203 73 1 2-2-1zM315 67l3 1Z"/><path fill="#FBFBFB" d="m305 65 3 1Z"/><path fill="#FEFEFE" d="m235 65 2 1-2 1z"/><path fill="#FCFCFC" d="m249 63 3 1Z"/><path fill="#FEFEFE" d="m112 60 2 1-2 1zM395 38l2 1-2 1z"/><path fill="#FDFDFD" d="m377 29 2 2h-2z"/><path fill="#FBFBFB" d="m351 20 3 1Z"/><path fill="#FEFDFE" d="m189 20 3 1Z"/><path fill="#FEFEFE" d="m325 12 2 2h-2zM320 12l3 1Z"/><path fill="#FFF" d="m263 7 3 1ZM235 488l2 1Z"/><path fill="#FEFEFE" d="m277 470 2 1Z"/><path fill="#FFF" d="m434 434 2 1Z"/><path fill="#FDFCFD" d="m430 433 2 1Z"/><path fill="#FFF" d="m135 433 2 1ZM435 432l2 1Z"/><path fill="#FEFEFE" d="m104 432 2 1Z"/><path fill="#FFF" d="m491 418 2 1Z"/><path fill="#FEFEFE" d="m487 417 2 1Z"/><path fill="#FFF" d="m491 416 2 1ZM253 414l2 1Z"/><path fill="#FEFEFE" d="m288 406 2 1ZM242 402l2 1ZM260 388l2 1Z"/><path fill="#FFF" d="m261 358 2 1ZM385 325l2 1Z"/><path fill="#FEFEFE" d="m387 306 2 1Z"/><path fill="#FBFEFD" d="m306 273 2 1Z"/><path fill="#FEFEFE" d="m299 272 2 1Z"/><path fill="#FCFCFC" d="m140 244 2 1Z"/><path fill="#FFF" d="m129 237 2 1Z"/><path fill="#FDFDFD" d="m251 205 2 1Z"/><path fill="#FDFFFE" d="m303 151 2 1Z"/><path fill="#FEFEFE" d="m92 151 2 1Z"/><path fill="#FCFCFC" d="m93 149 2 1Z"/><path fill="#FEFEFE" d="m118 119 2 1Z"/><path fill="#FFF" d="m403 114 2 1Z"/><path fill="#FDFDFD" d="m89 95 2 1Z"/><path fill="#FEFEFE" d="m450 91 2 1Z"/><path fill="#FCFCFC" d="m173 87 2 1Z"/><path fill="#FEFEFE" d="m354 80 2 1Z"/><path fill="#FFF" d="m189 79 2 1ZM304 78l2 1ZM301 77l2 1Z"/><path fill="#FDFCFD" d="m342 75 2 1Z"/><path fill="#FDFDFD" d="m227 67 2 1Z"/><path fill="#FCFCFC" d="m128 46 2 1Z"/><path fill="#FFF" d="m404 44 2 1Z"/><path fill="#FEFEFE" d="m151 36 2 1Z"/><path fill="#FFF" d="m168 28 2 1Z"/><path fill="#FEFEFE" d="m187 21 2 1ZM199 17l2 1ZM298 9l2 1Z"/><path fill="#FFF" d="m267 7 2 1Z"/></svg>